PsfTest-Regular.ufo
<glyph name="ExclamationMrk" format="2">
  <advance width="764.0"/>
  <unicode hex="0021"/>
  <outline>
    <contour>
      <point x="450.0" y="440.0" type="line"/>
      <point x="456.0" y="730.0"/>
      <point x="451.0" y="1076.0"/>
      <point x="490.0" y="1510.0" type="curve"/>
      <point x="235.0" y="1510.0" type="line"/>
      <point x="273.0" y="1076.0"/>
      <point x="268.0" y="730.0"/>
      <point x="275.0" y="440.0" type="curve"/>
    </contour>
    <contour>
      <point x="225.0" y="110.0" type="curve" smooth="yes"/>
      <point x="225.0" y="36.0"/>
      <point x="286.0" y="-25.0"/>
      <point x="360.0" y="-25.0" type="curve" smooth="yes"/>
      <point x="434.0" y="-25.0"/>
      <point x="495.0" y="36.0"/>
      <point x="495.0" y="110.0" type="curve" smooth="yes"/>
      <point x="495.0" y="184.0"/>
      <point x="434.0" y="245.0"/>
      <point x="360.0" y="245.0" type="curve" smooth="yes"/>
      <point x="286.0" y="245.0"/>
      <point x="225.0" y="184.0"/>
    </contour>
  </outline>
</glyph>
<glyph name="QuotMrk" format="2">
  <advance width="1025.0"/>
  <unicode hex="0022"/>
  <outline>
    <contour>
      <point x="405.0" y="1045.0" type="line"/>
      <point x="410.0" y="1186.0"/>
      <point x="416.0" y="1339.0"/>
      <point x="445.0" y="1585.0" type="curve"/>
      <point x="240.0" y="1585.0" type="line"/>
      <point x="271.0" y="1339.0"/>
      <point x="276.0" y="1186.0"/>
      <point x="280.0" y="1045.0" type="curve"/>
    </contour>
    <contour>
      <point x="745.0" y="1045.0" type="line"/>
      <point x="750.0" y="1186.0"/>
      <point x="756.0" y="1339.0"/>
      <point x="785.0" y="1585.0" type="curve"/>
      <point x="580.0" y="1585.0" type="line"/>
      <point x="611.0" y="1339.0"/>
      <point x="616.0" y="1186.0"/>
      <point x="620.0" y="1045.0" type="curve"/>
    </contour>
  </outline>
</glyph>
<glyph name="NumSgn" format="2">
  <advance width="1200.0"/>
  <unicode hex="0023"/>
  <outline>
    <contour>
      <point x="487.0" y="1460.0" type="line"/>
      <point x="127.0" y="200.0" type="line"/>
      <point x="277.0" y="200.0" type="line"/>
      <point x="637.0" y="1460.0" type="line"/>
    </contour>
    <contour>
      <point x="25.0" y="575.0" type="line"/>
      <point x="1116.0" y="575.0" type="line"/>
      <point x="1116.0" y="725.0" type="line"/>
      <point x="25.0" y="725.0" type="line"/>
    </contour>
    <contour>
      <point x="84.0" y="960.0" type="line"/>
      <point x="1175.0" y="960.0" type="line"/>
      <point x="1175.0" y="1110.0" type="line"/>
      <point x="84.0" y="1110.0" type="line"/>
    </contour>
    <contour>
      <point x="912.0" y="1460.0" type="line"/>
      <point x="552.0" y="200.0" type="line"/>
      <point x="702.0" y="200.0" type="line"/>
      <point x="1062.0" y="1460.0" type="line"/>
    </contour>
  </outline>
</glyph>
<glyph name="DollarSgn" format="2">
  <advance width="1200.0"/>
  <unicode hex="0024"/>
  <outline>
    <contour>
      <point x="553.0" y="1600.0" type="line"/>
      <point x="553.0" y="-220.0" type="line"/>
      <point x="683.0" y="-220.0" type="line"/>
      <point x="683.0" y="1600.0" type="line"/>
    </contour>
    <contour>
      <point x="986.0" y="1306.0" type="line"/>
      <point x="866.0" y="1364.0"/>
      <point x="764.0" y="1389.0"/>
      <point x="623.0" y="1389.0" type="curve" smooth="yes"/>
      <point x="317.0" y="1389.0"/>
      <point x="190.0" y="1173.0"/>
      <point x="190.0" y="1017.0" type="curve" smooth="yes"/>
      <point x="190.0" y="860.0"/>
      <point x="253.0" y="739.0"/>
      <point x="540.0" y="653.0" type="curve" smooth="yes"/>
      <point x="827.0" y="567.0"/>
      <point x="871.0" y="492.0"/>
      <point x="871.0" y="396.0" type="curve" smooth="yes"/>
      <point x="871.0" y="247.0"/>
      <point x="734.0" y="161.0"/>
      <point x="586.0" y="161.0" type="curve" smooth="yes"/>
      <point x="450.0" y="161.0"/>
      <point x="316.0" y="207.0"/>
      <point x="195.0" y="313.0" type="curve"/>
      <point x="153.0" y="124.0" type="line"/>
      <point x="247.0" y="52.0"/>
      <point x="408.0" y="0.0"/>
      <point x="586.0" y="0.0" type="curve" smooth="yes"/>
      <point x="837.0" y="0.0"/>
      <point x="1046.0" y="167.0"/>
      <point x="1046.0" y="414.0" type="curve" smooth="yes"/>
      <point x="1046.0" y="613.0"/>
      <point x="912.0" y="725.0"/>
      <point x="669.0" y="796.0" type="curve" smooth="yes"/>
      <point x="406.0" y="873.0"/>
      <point x="365.0" y="929.0"/>
      <point x="365.0" y="1030.0" type="curve" smooth="yes"/>
      <point x="365.0" y="1132.0"/>
      <point x="466.0" y="1228.0"/>
      <point x="613.0" y="1228.0" type="curve" smooth="yes"/>
      <point x="731.0" y="1228.0"/>
      <point x="818.0" y="1200.0"/>
      <point x="949.0" y="1127.0" type="curve"/>
    </contour>
  </outline>
</glyph>
<glyph name="PercentSgn" format="2">
  <advance width="1526.0"/>
  <unicode hex="0025"/>
  <outline>
    <contour>
      <point x="1261.0" y="366.0" type="curve" smooth="yes"/>
      <point x="1261.0" y="182.0"/>
      <point x="1216.0" y="115.0"/>
      <point x="1130.0" y="115.0" type="curve" smooth="yes"/>
      <point x="1041.0" y="115.0"/>
      <point x="1001.0" y="181.0"/>
      <point x="1001.0" y="381.0" type="curve" smooth="yes"/>
      <point x="1001.0" y="565.0"/>
      <point x="1043.0" y="630.0"/>
      <point x="1130.0" y="630.0" type="curve" smooth="yes"/>
      <point x="1221.0" y="630.0"/>
      <point x="1261.0" y="566.0"/>
    </contour>
    <contour>
      <point x="1426.0" y="379.0" type="curve" smooth="yes"/>
      <point x="1426.0" y="652.0"/>
      <point x="1310.0" y="770.0"/>
      <point x="1135.0" y="770.0" type="curve" smooth="yes"/>
      <point x="961.0" y="770.0"/>
      <point x="836.0" y="650.0"/>
      <point x="836.0" y="368.0" type="curve" smooth="yes"/>
      <point x="836.0" y="86.0"/>
      <point x="951.0" y="-25.0"/>
      <point x="1126.0" y="-25.0" type="curve" smooth="yes"/>
      <point x="1301.0" y="-25.0"/>
      <point x="1426.0" y="84.0"/>
    </contour>
    <contour>
      <point x="1073.0" y="1480.0" type="line"/>
      <point x="291.0" y="-25.0" type="line"/>
      <point x="459.0" y="-25.0" type="line"/>
      <point x="1239.0" y="1480.0" type="line"/>
    </contour>
    <contour>
      <point x="525.0" y="1076.0" type="curve" smooth="yes"/>
      <point x="525.0" y="892.0"/>
      <point x="480.0" y="825.0"/>
      <point x="394.0" y="825.0" type="curve" smooth="yes"/>
      <point x="305.0" y="825.0"/>
      <point x="265.0" y="891.0"/>
      <point x="265.0" y="1091.0" type="curve" smooth="yes"/>
      <point x="265.0" y="1275.0"/>
      <point x="307.0" y="1340.0"/>
      <point x="394.0" y="1340.0" type="curve" smooth="yes"/>
      <point x="485.0" y="1340.0"/>
      <point x="525.0" y="1276.0"/>
    </contour>
    <contour>
      <point x="690.0" y="1089.0" type="curve" smooth="yes"/>
      <point x="690.0" y="1362.0"/>
      <point x="574.0" y="1480.0"/>
      <point x="399.0" y="1480.0" type="curve" smooth="yes"/>
      <point x="225.0" y="1480.0"/>
      <point x="100.0" y="1360.0"/>
      <point x="100.0" y="1078.0" type="curve" smooth="yes"/>
      <point x="100.0" y="796.0"/>
      <point x="215.0" y="685.0"/>
      <point x="390.0" y="685.0" type="curve" smooth="yes"/>
      <point x="565.0" y="685.0"/>
      <point x="690.0" y="794.0"/>
    </contour>
  </outline>
</glyph>
<glyph name="Ampersand" format="2">
  <advance width="1222.0"/>
  <unicode hex="0026"/>
  <outline>
    <contour>
      <point x="490.0" y="1485.0" type="curve" smooth="yes"/>
      <point x="331.0" y="1485.0"/>
      <point x="155.0" y="1412.0"/>
      <point x="155.0" y="1190.0" type="curve" smooth="yes"/>
      <point x="155.0" y="1010.0"/>
      <point x="362.0" y="815.0"/>
      <point x="535.0" y="570.0" type="curve" smooth="yes"/>
      <point x="794.0" y="202.0"/>
      <point x="973.0" y="-25.0"/>
      <point x="1025.0" y="-25.0" type="curve" smooth="yes"/>
      <point x="1060.0" y="-25.0"/>
      <point x="1138.0" y="38.0"/>
      <point x="1175.0" y="70.0" type="curve"/>
      <point x="1080.0" y="110.0"/>
      <point x="914.0" y="297.0"/>
      <point x="650.0" y="680.0" type="curve" smooth="yes"/>
      <point x="494.0" y="906.0"/>
      <point x="315.0" y="1075.0"/>
      <point x="315.0" y="1200.0" type="curve" smooth="yes"/>
      <point x="315.0" y="1291.0"/>
      <point x="398.0" y="1350.0"/>
      <point x="475.0" y="1350.0" type="curve" smooth="yes"/>
      <point x="555.0" y="1350.0"/>
      <point x="630.0" y="1294.0"/>
      <point x="630.0" y="1205.0" type="curve" smooth="yes"/>
      <point x="630.0" y="1116.0"/>
      <point x="523.0" y="1001.0"/>
      <point x="350.0" y="840.0" type="curve" smooth="yes"/>
      <point x="146.0" y="651.0"/>
      <point x="55.0" y="527.0"/>
      <point x="55.0" y="375.0" type="curve" smooth="yes"/>
      <point x="55.0" y="151.0"/>
      <point x="217.0" y="-25.0"/>
      <point x="440.0" y="-25.0" type="curve" smooth="yes"/>
      <point x="713.0" y="-25.0"/>
      <point x="1002.0" y="274.0"/>
      <point x="1080.0" y="435.0" type="curve"/>
      <point x="975.0" y="570.0" type="line"/>
      <point x="911.0" y="403.0"/>
      <point x="630.0" y="150.0"/>
      <point x="455.0" y="150.0" type="curve" smooth="yes"/>
      <point x="310.0" y="150.0"/>
      <point x="230.0" y="267.0"/>
      <point x="230.0" y="380.0" type="curve" smooth="yes"/>
      <point x="230.0" y="490.0"/>
      <point x="296.0" y="587.0"/>
      <point x="470.0" y="740.0" type="curve" smooth="yes"/>
      <point x="651.0" y="899.0"/>
      <point x="790.0" y="1068.0"/>
      <point x="790.0" y="1200.0" type="curve" smooth="yes"/>
      <point x="790.0" y="1382.0"/>
      <point x="642.0" y="1485.0"/>
    </contour>
  </outline>
</glyph>
<glyph name="Apos" format="2">
  <advance width="605.0"/>
  <unicode hex="0027"/>
  <outline>
    <contour>
      <point x="365.0" y="1045.0" type="line"/>
      <point x="370.0" y="1186.0"/>
      <point x="376.0" y="1339.0"/>
      <point x="405.0" y="1585.0" type="curve"/>
      <point x="200.0" y="1585.0" type="line"/>
      <point x="231.0" y="1339.0"/>
      <point x="236.0" y="1186.0"/>
      <point x="240.0" y="1045.0" type="curve"/>
    </contour>
  </outline>
</glyph>
<glyph name="LftParen" format="2">
  <advance width="795.0"/>
  <unicode hex="0028"/>
  <outline>
    <contour>
      <point x="115.0" y="625.0" type="curve" smooth="yes"/>
      <point x="115.0" y="218.0"/>
      <point x="260.0" y="-125.0"/>
      <point x="535.0" y="-410.0" type="curve"/>
      <point x="630.0" y="-265.0" type="line"/>
      <point x="395.0" y="-8.0"/>
      <point x="305.0" y="278.0"/>
      <point x="305.0" y="625.0" type="curve" smooth="yes"/>
      <point x="305.0" y="982.0"/>
      <point x="395.0" y="1280.0"/>
      <point x="630.0" y="1485.0" type="curve"/>
      <point x="555.0" y="1640.0" type="line"/>
      <point x="290.0" y="1444.0"/>
      <point x="115.0" y="1062.0"/>
    </contour>
  </outline>
</glyph>
<glyph name="RtParen" format="2">
  <advance width="795.0"/>
  <unicode hex="0029"/>
  <outline>
    <contour>
      <point x="680.0" y="625.0" type="curve" smooth="yes"/>
      <point x="680.0" y="1062.0"/>
      <point x="505.0" y="1444.0"/>
      <point x="240.0" y="1640.0" type="curve"/>
      <point x="165.0" y="1485.0" type="line"/>
      <point x="390.0" y="1280.0"/>
      <point x="490.0" y="962.0"/>
      <point x="490.0" y="625.0" type="curve" smooth="yes"/>
      <point x="490.0" y="278.0"/>
      <point x="390.0" y="-8.0"/>
      <point x="165.0" y="-265.0" type="curve"/>
      <point x="260.0" y="-410.0" type="line"/>
      <point x="535.0" y="-125.0"/>
      <point x="680.0" y="218.0"/>
    </contour>
  </outline>
</glyph>
<glyph name="Asterisk" format="2">
  <advance width="1028.0"/>
  <unicode hex="002A"/>
  <outline>
    <contour>
      <point x="560.0" y="1600.0" type="curve"/>
      <point x="415.0" y="1600.0" type="line"/>
      <point x="434.0" y="1467.0"/>
      <point x="447.0" y="1387.0"/>
      <point x="450.0" y="1300.0" type="curve"/>
      <point x="376.0" y="1344.0"/>
      <point x="309.0" y="1387.0"/>
      <point x="200.0" y="1465.0" type="curve"/>
      <point x="125.0" y="1340.0" type="line"/>
      <point x="250.0" y="1290.0"/>
      <point x="327.0" y="1261.0"/>
      <point x="405.0" y="1220.0" type="curve"/>
      <point x="329.0" y="1177.0"/>
      <point x="256.0" y="1140.0"/>
      <point x="135.0" y="1085.0" type="curve"/>
      <point x="205.0" y="960.0" type="line"/>
      <point x="310.0" y="1042.0"/>
      <point x="377.0" y="1094.0"/>
      <point x="450.0" y="1140.0" type="curve"/>
      <point x="448.0" y="1055.0"/>
      <point x="442.0" y="973.0"/>
      <point x="430.0" y="840.0" type="curve"/>
      <point x="570.0" y="840.0" type="line"/>
      <point x="550.0" y="973.0"/>
      <point x="544.0" y="1052.0"/>
      <point x="540.0" y="1140.0" type="curve"/>
      <point x="614.0" y="1095.0"/>
      <point x="681.0" y="1053.0"/>
      <point x="790.0" y="975.0" type="curve"/>
      <point x="865.0" y="1100.0" type="line"/>
      <point x="739.0" y="1149.0"/>
      <point x="663.0" y="1179.0"/>
      <point x="585.0" y="1220.0" type="curve"/>
      <point x="661.0" y="1261.0"/>
      <point x="733.0" y="1299.0"/>
      <point x="855.0" y="1355.0" type="curve"/>
      <point x="785.0" y="1480.0" type="line"/>
      <point x="680.0" y="1396.0"/>
      <point x="614.0" y="1348.0"/>
      <point x="540.0" y="1300.0" type="curve"/>
      <point x="541.0" y="1387.0"/>
      <point x="547.0" y="1467.0"/>
    </contour>
  </outline>
</glyph>
<glyph name="PlusSgn" format="2">
  <advance width="1200.0"/>
  <unicode hex="002B"/>
  <outline>
    <contour>
      <point x="525.0" y="1180.0" type="line"/>
      <point x="525.0" y="285.0" type="line"/>
      <point x="675.0" y="285.0" type="line"/>
      <point x="675.0" y="1180.0" type="line"/>
    </contour>
    <contour>
      <point x="155.0" y="660.0" type="line"/>
      <point x="1045.0" y="660.0" type="line"/>
      <point x="1045.0" y="810.0" type="line"/>
      <point x="155.0" y="810.0" type="line"/>
    </contour>
  </outline>
</glyph>
<glyph name="Comma" format="2">
  <advance width="650.0"/>
  <unicode hex="002C"/>
  <outline>
    <contour>
      <point x="185.0" y="50.0" type="line"/>
      <point x="325.0" y="50.0" type="line"/>
      <point x="325.0" y="-51.0"/>
      <point x="248.0" y="-172.0"/>
      <point x="190.0" y="-230.0" type="curve"/>
      <point x="290.0" y="-270.0" type="line"/>
      <point x="407.0" y="-160.0"/>
      <point x="465.0" y="-37.0"/>
      <point x="465.0" y="85.0" type="curve" smooth="yes"/>
      <point x="465.0" y="186.0"/>
      <point x="400.0" y="250.0"/>
      <point x="320.0" y="250.0" type="curve" smooth="yes"/>
      <point x="263.0" y="250.0"/>
      <point x="198.0" y="213.0"/>
      <point x="185.0" y="150.0" type="curve"/>
    </contour>
  </outline>
</glyph>
<glyph name="HyphenMinus" format="2">
  <advance width="860.0"/>
  <unicode hex="002D"/>
  <anchor x="430.0" y="1100.0" name="U"/>
  <outline>
    <contour>
      <point x="80.0" y="555.0" type="line"/>
      <point x="780.0" y="555.0" type="line"/>
      <point x="780.0" y="705.0" type="line"/>
      <point x="80.0" y="705.0" type="line"/>
    </contour>
  </outline>
</glyph>
<glyph name="FullStop" format="2">
  <advance width="640.0"/>
  <unicode hex="002E"/>
  <outline>
    <contour>
      <point x="185.0" y="110.0" type="curve" smooth="yes"/>
      <point x="185.0" y="36.0"/>
      <point x="246.0" y="-25.0"/>
      <point x="320.0" y="-25.0" type="curve" smooth="yes"/>
      <point x="394.0" y="-25.0"/>
      <point x="455.0" y="36.0"/>
      <point x="455.0" y="110.0" type="curve" smooth="yes"/>
      <point x="455.0" y="184.0"/>
      <point x="394.0" y="245.0"/>
      <point x="320.0" y="245.0" type="curve" smooth="yes"/>
      <point x="246.0" y="245.0"/>
      <point x="185.0" y="184.0"/>
    </contour>
  </outline>
</glyph>
<glyph name="Solidus" format="2">
  <advance width="1000.0"/>
  <unicode hex="002F"/>
  <outline>
    <contour>
      <point x="840.0" y="1600.0" type="line"/>
      <point x="10.0" y="-245.0" type="line"/>
      <point x="160.0" y="-245.0" type="line"/>
      <point x="990.0" y="1600.0" type="line"/>
    </contour>
  </outline>
</glyph>
<glyph name="DigitZero" format="2">
  <advance width="1200.0"/>
  <unicode hex="0030"/>
  <anchor x="605.0" y="-100.0" name="L"/>
  <anchor x="605.0" y="1530.0" name="U"/>
  <outline>
    <contour>
      <point x="910.0" y="715.0" type="curve" smooth="yes"/>
      <point x="910.0" y="308.0"/>
      <point x="792.0" y="145.0"/>
      <point x="600.0" y="145.0" type="curve" smooth="yes"/>
      <point x="402.0" y="145.0"/>
      <point x="290.0" y="305.0"/>
      <point x="290.0" y="745.0" type="curve" smooth="yes"/>
      <point x="290.0" y="1153.0"/>
      <point x="407.0" y="1315.0"/>
      <point x="600.0" y="1315.0" type="curve" smooth="yes"/>
      <point x="802.0" y="1315.0"/>
      <point x="910.0" y="1156.0"/>
    </contour>
    <contour>
      <point x="1110.0" y="740.0" type="curve" smooth="yes"/>
      <point x="1110.0" y="1286.0"/>
      <point x="900.0" y="1485.0"/>
      <point x="610.0" y="1485.0" type="curve" smooth="yes"/>
      <point x="321.0" y="1485.0"/>
      <point x="90.0" y="1283.0"/>
      <point x="90.0" y="720.0" type="curve" smooth="yes"/>
      <point x="90.0" y="155.0"/>
      <point x="301.0" y="-25.0"/>
      <point x="590.0" y="-25.0" type="curve" smooth="yes"/>
      <point x="881.0" y="-25.0"/>
      <point x="1110.0" y="151.0"/>
    </contour>
  </outline>
</glyph>
<glyph name="DigitOne" format="2">
  <advance width="1200.0"/>
  <unicode hex="0031"/>
  <anchor x="600.0" y="-100.0" name="L"/>
  <anchor x="600.0" y="1530.0" name="U"/>
  <outline>
    <contour>
      <point x="535.0" y="170.0" type="line"/>
      <point x="220.0" y="170.0" type="line"/>
      <point x="220.0" y="0.0" type="line"/>
      <point x="1040.0" y="0.0" type="line"/>
      <point x="1040.0" y="170.0" type="line"/>
      <point x="725.0" y="170.0" type="line"/>
      <point x="725.0" y="1480.0" type="line"/>
      <point x="555.0" y="1480.0" type="line"/>
      <point x="210.0" y="1268.0" type="line"/>
      <point x="235.0" y="1088.0" type="line"/>
      <point x="535.0" y="1260.0" type="line"/>
    </contour>
  </outline>
</glyph>
<glyph name="DigitTwo" format="2">
  <advance width="1200.0"/>
  <unicode hex="0032"/>
  <anchor x="600.0" y="-100.0" name="L"/>
  <anchor x="560.0" y="1530.0" name="U"/>
  <outline>
    <contour>
      <point x="1080.0" y="180.0" type="line"/>
      <point x="1000.0" y="166.0"/>
      <point x="842.0" y="165.0"/>
      <point x="645.0" y="165.0" type="curve" smooth="yes"/>
      <point x="390.0" y="165.0" type="line"/>
      <point x="609.0" y="352.0"/>
      <point x="1010.0" y="729.0"/>
      <point x="1010.0" y="1065.0" type="curve" smooth="yes"/>
      <point x="1010.0" y="1323.0"/>
      <point x="800.0" y="1485.0"/>
      <point x="560.0" y="1485.0" type="curve" smooth="yes"/>
      <point x="391.0" y="1485.0"/>
      <point x="206.0" y="1402.0"/>
      <point x="125.0" y="1290.0" type="curve"/>
      <point x="170.0" y="1120.0" type="line"/>
      <point x="259.0" y="1228.0"/>
      <point x="402.0" y="1305.0"/>
      <point x="525.0" y="1305.0" type="curve" smooth="yes"/>
      <point x="668.0" y="1305.0"/>
      <point x="810.0" y="1233.0"/>
      <point x="810.0" y="1045.0" type="curve" smooth="yes"/>
      <point x="810.0" y="768.0"/>
      <point x="391.0" y="365.0"/>
      <point x="120.0" y="170.0" type="curve"/>
      <point x="120.0" y="0.0" type="line"/>
      <point x="1080.0" y="0.0" type="line"/>
    </contour>
  </outline>
</glyph>
<glyph name="DigitThree" format="2">
  <advance width="1200.0"/>
  <unicode hex="0033"/>
  <anchor x="600.0" y="-100.0" name="L"/>
  <anchor x="600.0" y="1530.0" name="U"/>
  <outline>
    <contour>
      <point x="410.0" y="870.0" type="line"/>
      <point x="410.0" y="700.0" type="line"/>
      <point x="480.0" y="700.0" type="line"/>
      <point x="716.0" y="700.0"/>
      <point x="895.0" y="588.0"/>
      <point x="895.0" y="425.0" type="curve" smooth="yes"/>
      <point x="895.0" y="241.0"/>
      <point x="718.0" y="150.0"/>
      <point x="565.0" y="150.0" type="curve" smooth="yes"/>
      <point x="385.0" y="150.0"/>
      <point x="244.0" y="232.0"/>
      <point x="135.0" y="355.0" type="curve"/>
      <point x="110.0" y="140.0" type="line"/>
      <point x="215.0" y="42.0"/>
      <point x="368.0" y="-25.0"/>
      <point x="545.0" y="-25.0" type="curve" smooth="yes"/>
      <point x="834.0" y="-25.0"/>
      <point x="1090.0" y="170.0"/>
      <point x="1090.0" y="405.0" type="curve" smooth="yes"/>
      <point x="1090.0" y="672.0"/>
      <point x="862.0" y="776.0"/>
      <point x="720.0" y="800.0" type="curve"/>
      <point x="862.0" y="829.0"/>
      <point x="1040.0" y="957.0"/>
      <point x="1040.0" y="1140.0" type="curve" smooth="yes"/>
      <point x="1040.0" y="1354.0"/>
      <point x="828.0" y="1485.0"/>
      <point x="580.0" y="1485.0" type="curve"/>
      <point x="413.0" y="1485.0"/>
      <point x="260.0" y="1416.0"/>
      <point x="180.0" y="1325.0" type="curve"/>
      <point x="215.0" y="1155.0" type="line"/>
      <point x="328.0" y="1271.0"/>
      <point x="436.0" y="1310.0"/>
      <point x="590.0" y="1310.0" type="curve" smooth="yes"/>
      <point x="711.0" y="1310.0"/>
      <point x="850.0" y="1250.0"/>
      <point x="850.0" y="1115.0" type="curve" smooth="yes"/>
      <point x="850.0" y="991.0"/>
      <point x="679.0" y="870.0"/>
      <point x="480.0" y="870.0" type="curve"/>
    </contour>
  </outline>
</glyph>
<glyph name="DigitFour" format="2">
  <advance width="1200.0"/>
  <unicode hex="0034"/>
  <anchor x="607.0" y="-100.0" name="L"/>
  <anchor x="607.0" y="1530.0" name="U"/>
  <outline>
    <contour>
      <point x="1125.0" y="395.0" type="line"/>
      <point x="1125.0" y="550.0" type="line"/>
      <point x="935.0" y="550.0" type="line"/>
      <point x="935.0" y="1480.0" type="line"/>
      <point x="745.0" y="1480.0" type="line"/>
      <point x="90.0" y="550.0" type="line"/>
      <point x="90.0" y="395.0" type="line"/>
      <point x="745.0" y="395.0" type="line"/>
      <point x="745.0" y="0.0" type="line"/>
      <point x="935.0" y="0.0" type="line"/>
      <point x="935.0" y="395.0" type="line"/>
    </contour>
    <contour>
      <point x="745.0" y="1230.0" type="line"/>
      <point x="745.0" y="550.0" type="line"/>
      <point x="263.0" y="550.0" type="line"/>
    </contour>
  </outline>
</glyph>
<glyph name="DigitFive" format="2">
  <advance width="1200.0"/>
  <unicode hex="0035"/>
  <anchor x="600.0" y="-100.0" name="L"/>
  <anchor x="600.0" y="1530.0" name="U"/>
  <outline>
    <contour>
      <point x="195.0" y="685.0" type="line"/>
      <point x="319.0" y="733.0"/>
      <point x="404.0" y="750.0"/>
      <point x="510.0" y="750.0" type="curve" smooth="yes"/>
      <point x="670.0" y="750.0"/>
      <point x="870.0" y="672.0"/>
      <point x="870.0" y="470.0" type="curve" smooth="yes"/>
      <point x="870.0" y="268.0"/>
      <point x="730.0" y="155.0"/>
      <point x="530.0" y="155.0" type="curve" smooth="yes"/>
      <point x="390.0" y="155.0"/>
      <point x="294.0" y="182.0"/>
      <point x="160.0" y="290.0" type="curve"/>
      <point x="130.0" y="80.0" type="line"/>
      <point x="255.0" y="2.0"/>
      <point x="363.0" y="-25.0"/>
      <point x="518.0" y="-25.0" type="curve" smooth="yes"/>
      <point x="831.0" y="-25.0"/>
      <point x="1060.0" y="163.0"/>
      <point x="1060.0" y="475.0" type="curve" smooth="yes"/>
      <point x="1060.0" y="742.0"/>
      <point x="832.0" y="930.0"/>
      <point x="545.0" y="930.0" type="curve" smooth="yes"/>
      <point x="472.0" y="930.0"/>
      <point x="411.0" y="924.0"/>
      <point x="380.0" y="920.0" type="curve"/>
      <point x="380.0" y="1290.0" type="line"/>
      <point x="765.0" y="1290.0" type="line"/>
      <point x="849.0" y="1290.0"/>
      <point x="925.0" y="1286.0"/>
      <point x="1000.0" y="1270.0" type="curve"/>
      <point x="1000.0" y="1460.0" type="line"/>
      <point x="195.0" y="1460.0" type="line"/>
    </contour>
  </outline>
</glyph>
<glyph name="DigitSix" format="2">
  <advance width="1200.0"/>
  <unicode hex="0036"/>
  <anchor x="600.0" y="-100.0" name="L"/>
  <anchor x="600.0" y="1530.0" name="U"/>
  <outline>
    <contour>
      <point x="1033.0" y="1395.0" type="line"/>
      <point x="929.0" y="1465.0"/>
      <point x="843.0" y="1485.0"/>
      <point x="725.0" y="1485.0" type="curve" smooth="yes"/>
      <point x="250.0" y="1485.0"/>
      <point x="110.0" y="1049.0"/>
      <point x="110.0" y="680.0" type="curve" smooth="yes"/>
      <point x="110.0" y="242.0"/>
      <point x="290.0" y="-25.0"/>
      <point x="600.0" y="-25.0" type="curve" smooth="yes"/>
      <point x="907.0" y="-25.0"/>
      <point x="1115.0" y="166.0"/>
      <point x="1115.0" y="470.0" type="curve" smooth="yes"/>
      <point x="1115.0" y="719.0"/>
      <point x="943.0" y="895.0"/>
      <point x="665.0" y="895.0" type="curve" smooth="yes"/>
      <point x="474.0" y="895.0"/>
      <point x="328.0" y="780.0"/>
      <point x="215.0" y="625.0" type="curve"/>
      <point x="280.0" y="550.0" type="line"/>
      <point x="362.0" y="653.0"/>
      <point x="490.0" y="720.0"/>
      <point x="645.0" y="720.0" type="curve" smooth="yes"/>
      <point x="824.0" y="720.0"/>
      <point x="920.0" y="611.0"/>
      <point x="920.0" y="435.0" type="curve" smooth="yes"/>
      <point x="920.0" y="275.0"/>
      <point x="806.0" y="150.0"/>
      <point x="630.0" y="150.0" type="curve" smooth="yes"/>
      <point x="409.0" y="150.0"/>
      <point x="305.0" y="393.0"/>
      <point x="305.0" y="645.0" type="curve" smooth="yes"/>
      <point x="305.0" y="1132.0"/>
      <point x="478.0" y="1310.0"/>
      <point x="715.0" y="1310.0" type="curve" smooth="yes"/>
      <point x="811.0" y="1310.0"/>
      <point x="903.0" y="1286.0"/>
      <point x="989.0" y="1200.0" type="curve"/>
    </contour>
  </outline>
</glyph>
<glyph name="DigitSeven" format="2">
  <advance width="1200.0"/>
  <unicode hex="0037"/>
  <anchor x="600.0" y="-100.0" name="L"/>
  <anchor x="600.0" y="1530.0" name="U"/>
  <outline>
    <contour>
      <point x="460.0" y="0.0" type="line"/>
      <point x="589.0" y="459.0"/>
      <point x="794.0" y="895.0"/>
      <point x="1090.0" y="1300.0" type="curve"/>
      <point x="1090.0" y="1460.0" type="line"/>
      <point x="100.0" y="1460.0" type="line"/>
      <point x="100.0" y="1275.0" type="line"/>
      <point x="176.0" y="1291.0"/>
      <point x="292.0" y="1295.0"/>
      <point x="480.0" y="1295.0" type="curve" smooth="yes"/>
      <point x="870.0" y="1295.0" type="line"/>
      <point x="612.0" y="912.0"/>
      <point x="439.0" y="566.0"/>
      <point x="275.0" y="0.0" type="curve"/>
    </contour>
  </outline>
</glyph>
<glyph name="DigitEight" format="2">
  <advance width="1200.0"/>
  <unicode hex="0038"/>
  <anchor x="600.0" y="-100.0" name="L"/>
  <anchor x="600.0" y="1530.0" name="U"/>
  <outline>
    <contour>
      <point x="600.0" y="-25.0" type="curve" smooth="yes"/>
      <point x="857.0" y="-25.0"/>
      <point x="1110.0" y="134.0"/>
      <point x="1110.0" y="405.0" type="curve" smooth="yes"/>
      <point x="1110.0" y="611.0"/>
      <point x="965.0" y="739.0"/>
      <point x="855.0" y="795.0" type="curve"/>
      <point x="933.0" y="844.0"/>
      <point x="1050.0" y="923.0"/>
      <point x="1050.0" y="1105.0" type="curve" smooth="yes"/>
      <point x="1050.0" y="1350.0"/>
      <point x="840.0" y="1485.0"/>
      <point x="610.0" y="1485.0" type="curve" smooth="yes"/>
      <point x="381.0" y="1485.0"/>
      <point x="150.0" y="1350.0"/>
      <point x="150.0" y="1105.0" type="curve" smooth="yes"/>
      <point x="150.0" y="923.0"/>
      <point x="272.0" y="838.0"/>
      <point x="350.0" y="795.0" type="curve"/>
      <point x="221.0" y="725.0"/>
      <point x="90.0" y="611.0"/>
      <point x="90.0" y="405.0" type="curve" smooth="yes"/>
      <point x="90.0" y="134.0"/>
      <point x="344.0" y="-25.0"/>
    </contour>
    <contour>
      <point x="860.0" y="1105.0" type="curve" smooth="yes"/>
      <point x="860.0" y="949.0"/>
      <point x="743.0" y="865.0"/>
      <point x="600.0" y="865.0" type="curve" smooth="yes"/>
      <point x="457.0" y="865.0"/>
      <point x="340.0" y="949.0"/>
      <point x="340.0" y="1105.0" type="curve" smooth="yes"/>
      <point x="340.0" y="1252.0"/>
      <point x="457.0" y="1325.0"/>
      <point x="600.0" y="1325.0" type="curve" smooth="yes"/>
      <point x="743.0" y="1325.0"/>
      <point x="860.0" y="1252.0"/>
    </contour>
    <contour>
      <point x="910.0" y="425.0" type="curve" smooth="yes"/>
      <point x="910.0" y="250.0"/>
      <point x="778.0" y="145.0"/>
      <point x="600.0" y="145.0" type="curve" smooth="yes"/>
      <point x="420.0" y="145.0"/>
      <point x="290.0" y="250.0"/>
      <point x="290.0" y="425.0" type="curve" smooth="yes"/>
      <point x="290.0" y="592.0"/>
      <point x="420.0" y="710.0"/>
      <point x="600.0" y="710.0" type="curve" smooth="yes"/>
      <point x="778.0" y="710.0"/>
      <point x="910.0" y="592.0"/>
    </contour>
  </outline>
</glyph>
<glyph name="DigitNine" format="2">
  <advance width="1200.0"/>
  <unicode hex="0039"/>
  <anchor x="600.0" y="-100.0" name="L"/>
  <anchor x="600.0" y="1530.0" name="U"/>
  <outline>
    <contour>
      <point x="193.0" y="65.0" type="line"/>
      <point x="297.0" y="-5.0"/>
      <point x="383.0" y="-25.0"/>
      <point x="501.0" y="-25.0" type="curve" smooth="yes"/>
      <point x="976.0" y="-25.0"/>
      <point x="1114.0" y="411.0"/>
      <point x="1114.0" y="780.0" type="curve" smooth="yes"/>
      <point x="1114.0" y="1198.0"/>
      <point x="926.0" y="1485.0"/>
      <point x="616.0" y="1485.0" type="curve" smooth="yes"/>
      <point x="349.0" y="1485.0"/>
      <point x="112.0" y="1306.0"/>
      <point x="112.0" y="1002.0" type="curve" smooth="yes"/>
      <point x="112.0" y="773.0"/>
      <point x="281.0" y="586.0"/>
      <point x="559.0" y="586.0" type="curve" smooth="yes"/>
      <point x="750.0" y="586.0"/>
      <point x="922.0" y="717.0"/>
      <point x="1019.0" y="878.0" type="curve"/>
      <point x="948.0" y="961.0" type="line"/>
      <point x="874.0" y="847.0"/>
      <point x="738.0" y="760.0"/>
      <point x="583.0" y="760.0" type="curve" smooth="yes"/>
      <point x="424.0" y="760.0"/>
      <point x="306.0" y="860.0"/>
      <point x="306.0" y="1036.0" type="curve" smooth="yes"/>
      <point x="306.0" y="1196.0"/>
      <point x="420.0" y="1310.0"/>
      <point x="596.0" y="1310.0" type="curve" smooth="yes"/>
      <point x="837.0" y="1310.0"/>
      <point x="919.0" y="1065.0"/>
      <point x="919.0" y="813.0" type="curve" smooth="yes"/>
      <point x="919.0" y="326.0"/>
      <point x="748.0" y="150.0"/>
      <point x="511.0" y="150.0" type="curve" smooth="yes"/>
      <point x="415.0" y="150.0"/>
      <point x="323.0" y="174.0"/>
      <point x="237.0" y="260.0" type="curve"/>
    </contour>
  </outline>
</glyph>
<glyph name="LTSgn" format="2">
  <advance width="1200.0"/>
  <unicode hex="003C"/>
  <outline>
    <contour>
      <point x="1080.0" y="425.0" type="line"/>
      <point x="290.0" y="730.0" type="line"/>
      <point x="1080.0" y="1035.0" type="line"/>
      <point x="1080.0" y="1215.0" type="line"/>
      <point x="100.0" y="815.0" type="line"/>
      <point x="100.0" y="645.0" type="line"/>
      <point x="1080.0" y="245.0" type="line"/>
    </contour>
  </outline>
</glyph>
<glyph name="EqSgn" format="2">
  <advance width="1200.0"/>
  <unicode hex="003D"/>
  <outline>
    <contour>
      <point x="120.0" y="480.0" type="line"/>
      <point x="1080.0" y="480.0" type="line"/>
      <point x="1080.0" y="630.0" type="line"/>
      <point x="120.0" y="630.0" type="line"/>
    </contour>
    <contour>
      <point x="120.0" y="830.0" type="line"/>
      <point x="1080.0" y="830.0" type="line"/>
      <point x="1080.0" y="980.0" type="line"/>
      <point x="120.0" y="980.0" type="line"/>
    </contour>
  </outline>
</glyph>
<glyph name="GTSgn" format="2">
  <advance width="1200.0"/>
  <unicode hex="003E"/>
  <outline>
    <contour>
      <point x="120.0" y="1035.0" type="line"/>
      <point x="910.0" y="730.0" type="line"/>
      <point x="120.0" y="425.0" type="line"/>
      <point x="120.0" y="245.0" type="line"/>
      <point x="1100.0" y="645.0" type="line"/>
      <point x="1100.0" y="815.0" type="line"/>
      <point x="120.0" y="1215.0" type="line"/>
    </contour>
  </outline>
</glyph>
<glyph name="QstnMrk" format="2">
  <advance width="1050.0"/>
  <unicode hex="003F"/>
  <outline>
    <contour>
      <point x="460.0" y="1540.0" type="curve" smooth="yes"/>
      <point x="335.0" y="1540.0"/>
      <point x="206.0" y="1493.0"/>
      <point x="140.0" y="1430.0" type="curve"/>
      <point x="185.0" y="1251.0" type="line"/>
      <point x="261.0" y="1330.0"/>
      <point x="352.0" y="1365.0"/>
      <point x="432.0" y="1365.0" type="curve" smooth="yes"/>
      <point x="579.0" y="1365.0"/>
      <point x="625.0" y="1289.0"/>
      <point x="625.0" y="1230.0" type="curve" smooth="yes"/>
      <point x="625.0" y="1159.0"/>
      <point x="572.0" y="1092.0"/>
      <point x="485.0" y="980.0" type="curve" smooth="yes"/>
      <point x="397.0" y="867.0"/>
      <point x="355.0" y="730.0"/>
      <point x="355.0" y="440.0" type="curve"/>
      <point x="540.0" y="440.0" type="line"/>
      <point x="540.0" y="721.0"/>
      <point x="561.0" y="806.0"/>
      <point x="665.0" y="927.0" type="curve" smooth="yes"/>
      <point x="753.0" y="1028.0"/>
      <point x="830.0" y="1117.0"/>
      <point x="830.0" y="1240.0" type="curve" smooth="yes"/>
      <point x="830.0" y="1422.0"/>
      <point x="697.0" y="1540.0"/>
    </contour>
    <contour>
      <point x="315.0" y="110.0" type="curve" smooth="yes"/>
      <point x="315.0" y="36.0"/>
      <point x="376.0" y="-25.0"/>
      <point x="450.0" y="-25.0" type="curve" smooth="yes"/>
      <point x="524.0" y="-25.0"/>
      <point x="585.0" y="36.0"/>
      <point x="585.0" y="110.0" type="curve" smooth="yes"/>
      <point x="585.0" y="184.0"/>
      <point x="524.0" y="245.0"/>
      <point x="450.0" y="245.0" type="curve" smooth="yes"/>
      <point x="376.0" y="245.0"/>
      <point x="315.0" y="184.0"/>
    </contour>
  </outline>
</glyph>
<glyph name="AtSgn" format="2">
  <advance width="1702.0"/>
  <unicode hex="0040"/>
  <outline>
    <contour>
      <point x="1605.0" y="700.0" type="curve" smooth="yes"/>
      <point x="1605.0" y="1127.0"/>
      <point x="1307.0" y="1405.0"/>
      <point x="880.0" y="1405.0" type="curve" smooth="yes"/>
      <point x="465.0" y="1405.0"/>
      <point x="95.0" y="1126.0"/>
      <point x="95.0" y="575.0" type="curve" smooth="yes"/>
      <point x="95.0" y="48.0"/>
      <point x="464.0" y="-235.0"/>
      <point x="855.0" y="-235.0" type="curve" smooth="yes"/>
      <point x="990.0" y="-235.0"/>
      <point x="1150.0" y="-188.0"/>
      <point x="1250.0" y="-118.0" type="curve"/>
      <point x="1145.0" y="-10.0" type="line"/>
      <point x="1058.0" y="-70.0"/>
      <point x="963.0" y="-95.0"/>
      <point x="870.0" y="-95.0" type="curve" smooth="yes"/>
      <point x="523.0" y="-95.0"/>
      <point x="240.0" y="174.0"/>
      <point x="240.0" y="605.0" type="curve" smooth="yes"/>
      <point x="240.0" y="1003.0"/>
      <point x="542.0" y="1270.0"/>
      <point x="870.0" y="1270.0" type="curve" smooth="yes"/>
      <point x="1263.0" y="1270.0"/>
      <point x="1465.0" y="1002.0"/>
      <point x="1465.0" y="670.0" type="curve" smooth="yes"/>
      <point x="1465.0" y="432.0"/>
      <point x="1348.0" y="315.0"/>
      <point x="1280.0" y="315.0" type="curve" smooth="yes"/>
      <point x="1221.0" y="315.0"/>
      <point x="1175.0" y="410.0"/>
      <point x="1175.0" y="630.0" type="curve" smooth="yes"/>
      <point x="1175.0" y="980.0" type="line"/>
      <point x="1088.0" y="1015.0"/>
      <point x="961.0" y="1040.0"/>
      <point x="880.0" y="1040.0" type="curve" smooth="yes"/>
      <point x="716.0" y="1040.0"/>
      <point x="613.0" y="971.0"/>
      <point x="530.0" y="835.0" type="curve" smooth="yes"/>
      <point x="483.0" y="756.0"/>
      <point x="455.0" y="653.0"/>
      <point x="455.0" y="530.0" type="curve" smooth="yes"/>
      <point x="455.0" y="294.0"/>
      <point x="601.0" y="183.0"/>
      <point x="735.0" y="183.0" type="curve" smooth="yes"/>
      <point x="852.0" y="183.0"/>
      <point x="988.0" y="366.0"/>
      <point x="1040.0" y="490.0" type="curve"/>
      <point x="1050.0" y="322.0"/>
      <point x="1128.0" y="180.0"/>
      <point x="1250.0" y="180.0" type="curve" smooth="yes"/>
      <point x="1425.0" y="180.0"/>
      <point x="1605.0" y="368.0"/>
    </contour>
    <contour>
      <point x="850.0" y="905.0" type="curve" smooth="yes"/>
      <point x="924.0" y="905.0"/>
      <point x="992.0" y="886.0"/>
      <point x="1025.0" y="870.0" type="curve"/>
      <point x="1025.0" y="720.0" type="line"/>
      <point x="993.0" y="582.0"/>
      <point x="838.0" y="320.0"/>
      <point x="748.0" y="320.0" type="curve" smooth="yes"/>
      <point x="676.0" y="320.0"/>
      <point x="605.0" y="398.0"/>
      <point x="605.0" y="575.0" type="curve" smooth="yes"/>
      <point x="605.0" y="652.0"/>
      <point x="621.0" y="731.0"/>
      <point x="650.0" y="780.0" type="curve" smooth="yes"/>
      <point x="706.0" y="876.0"/>
      <point x="782.0" y="905.0"/>
    </contour>
  </outline>
</glyph>
<glyph name="LtnCapA" format="2">
  <advance width="1395.0"/>
  <unicode hex="0041"/>
  <anchor x="707.0" y="0.0" name="H"/>
  <anchor x="687.0" y="-100.0" name="L"/>
  <anchor x="1450.0" y="0.0" name="O"/>
  <anchor x="687.0" y="1530.0" name="U"/>
  <outline>
    <contour>
      <point x="245.0" y="0.0" type="line"/>
      <point x="379.0" y="385.0" type="line"/>
      <point x="994.0" y="385.0" type="line"/>
      <point x="1130.0" y="0.0" type="line"/>
      <point x="1335.0" y="0.0" type="line"/>
      <point x="1300.0" y="80.0"/>
      <point x="1262.0" y="169.0"/>
      <point x="1195.0" y="355.0" type="curve" smooth="yes"/>
      <point x="795.0" y="1460.0" type="line"/>
      <point x="580.0" y="1460.0" type="line"/>
      <point x="180.0" y="355.0" type="line" smooth="yes"/>
      <point x="112.0" y="168.0"/>
      <point x="76.0" y="81.0"/>
      <point x="40.0" y="0.0" type="curve"/>
    </contour>
    <contour>
      <point x="940.0" y="540.0" type="line"/>
      <point x="433.0" y="540.0" type="line"/>
      <point x="685.0" y="1265.0" type="line"/>
    </contour>
  </outline>
</glyph>
<glyph name="LtnCapB" format="2">
  <advance width="1285.0"/>
  <unicode hex="0042"/>
  <anchor x="615.0" y="-100.0" name="L"/>
  <anchor x="615.0" y="1530.0" name="U"/>
  <outline>
    <contour>
      <point x="365.0" y="1310.0" type="line"/>
      <point x="407.0" y="1312.0"/>
      <point x="512.0" y="1315.0"/>
      <point x="590.0" y="1315.0" type="curve" smooth="yes"/>
      <point x="791.0" y="1315.0"/>
      <point x="870.0" y="1239.0"/>
      <point x="870.0" y="1090.0" type="curve" smooth="yes"/>
      <point x="870.0" y="951.0"/>
      <point x="774.0" y="855.0"/>
      <point x="560.0" y="855.0" type="curve" smooth="yes"/>
      <point x="365.0" y="855.0" type="line"/>
    </contour>
    <contour>
      <point x="175.0" y="455.0" type="line"/>
      <point x="175.0" y="257.0"/>
      <point x="175.0" y="80.0"/>
      <point x="160.0" y="0.0" type="curve"/>
      <point x="213.0" y="-5.0"/>
      <point x="402.0" y="-10.0"/>
      <point x="605.0" y="-10.0" type="curve" smooth="yes"/>
      <point x="988.0" y="-10.0"/>
      <point x="1140.0" y="177.0"/>
      <point x="1140.0" y="420.0" type="curve" smooth="yes"/>
      <point x="1140.0" y="669.0"/>
      <point x="974.0" y="759.0"/>
      <point x="820.0" y="800.0" type="curve"/>
      <point x="956.0" y="852.0"/>
      <point x="1065.0" y="952.0"/>
      <point x="1065.0" y="1120.0" type="curve" smooth="yes"/>
      <point x="1065.0" y="1381.0"/>
      <point x="897.0" y="1470.0"/>
      <point x="600.0" y="1470.0" type="curve" smooth="yes"/>
      <point x="431.0" y="1470.0"/>
      <point x="248.0" y="1466.0"/>
      <point x="160.0" y="1460.0" type="curve"/>
      <point x="175.0" y="1380.0"/>
      <point x="175.0" y="1196.0"/>
      <point x="175.0" y="1000.0" type="curve" smooth="yes"/>
    </contour>
    <contour>
      <point x="365.0" y="700.0" type="line"/>
      <point x="600.0" y="700.0" type="line" smooth="yes"/>
      <point x="833.0" y="700.0"/>
      <point x="945.0" y="604.0"/>
      <point x="945.0" y="420.0" type="curve" smooth="yes"/>
      <point x="945.0" y="212.0"/>
      <point x="781.0" y="150.0"/>
      <point x="610.0" y="150.0" type="curve" smooth="yes"/>
      <point x="498.0" y="150.0"/>
      <point x="402.0" y="153.0"/>
      <point x="365.0" y="155.0" type="curve"/>
    </contour>
  </outline>
</glyph>
<glyph name="LtnCapC" format="2">
  <advance width="1355.0"/>
  <unicode hex="0043"/>
  <anchor x="750.0" y="0.0" name="H"/>
  <anchor x="750.0" y="-100.0" name="L"/>
  <anchor x="750.0" y="1530.0" name="U"/>
  <outline>
    <contour>
      <point x="1190.0" y="335.0" type="line"/>
      <point x="1078.0" y="223.0"/>
      <point x="912.0" y="150.0"/>
      <point x="760.0" y="150.0" type="curve" smooth="yes"/>
      <point x="489.0" y="150.0"/>
      <point x="290.0" y="376.0"/>
      <point x="290.0" y="735.0" type="curve" smooth="yes"/>
      <point x="290.0" y="1119.0"/>
      <point x="491.0" y="1315.0"/>
      <point x="770.0" y="1315.0" type="curve" smooth="yes"/>
      <point x="891.0" y="1315.0"/>
      <point x="1030.0" y="1278.0"/>
      <point x="1155.0" y="1165.0" type="curve"/>
      <point x="1215.0" y="1345.0" type="line"/>
      <point x="1072.0" y="1452.0"/>
      <point x="913.0" y="1485.0"/>
      <point x="770.0" y="1485.0" type="curve" smooth="yes"/>
      <point x="418.0" y="1485.0"/>
      <point x="95.0" y="1225.0"/>
      <point x="95.0" y="710.0" type="curve" smooth="yes"/>
      <point x="95.0" y="260.0"/>
      <point x="346.0" y="-25.0"/>
      <point x="750.0" y="-25.0" type="curve" smooth="yes"/>
      <point x="902.0" y="-25.0"/>
      <point x="1114.0" y="32.0"/>
      <point x="1230.0" y="140.0" type="curve"/>
    </contour>
  </outline>
</glyph>
<glyph name="LtnCapD" format="2">
  <advance width="1435"/>
  <unicode hex="0044"/>
  <anchor x="715" y="-100" name="L"/>
  <anchor x="715" y="1530" name="U"/>
  <outline>
    <contour>
      <point x="175" y="455" type="line"/>
      <point x="174" y="257"/>
      <point x="175" y="80"/>
      <point x="160" y="0" type="curve"/>
      <point x="160" y="0"/>
      <point x="467" y="-10"/>
      <point x="595" y="-10" type="curve" smooth="yes"/>
      <point x="888" y="-10"/>
      <point x="1315" y="145"/>
      <point x="1315" y="740" type="curve" smooth="yes"/>
      <point x="1315" y="1394"/>
      <point x="829" y="1470"/>
      <point x="615" y="1470" type="curve" smooth="yes"/>
      <point x="480" y="1470"/>
      <point x="245" y="1466"/>
      <point x="160" y="1460" type="curve"/>
      <point x="175" y="1380"/>
      <point x="175" y="1196"/>
      <point x="175" y="1000" type="curve" smooth="yes"/>
    </contour>
    <contour>
      <point x="365" y="1305" type="line"/>
      <point x="415" y="1307"/>
      <point x="524" y="1310"/>
      <point x="590" y="1310" type="curve" smooth="yes"/>
      <point x="878" y="1310"/>
      <point x="1120" y="1167"/>
      <point x="1120" y="720" type="curve" smooth="yes"/>
      <point x="1120" y="308"/>
      <point x="853" y="155"/>
      <point x="585" y="155" type="curve" smooth="yes"/>
      <point x="490" y="155"/>
      <point x="412" y="161"/>
      <point x="365" y="165" type="curve"/>
    </contour>
  </outline>
</glyph>
<glyph name="LtnCapE" format="2">
  <advance width="1160.0"/>
  <unicode hex="0045"/>
  <anchor x="600.0" y="0.0" name="H"/>
  <anchor x="600.0" y="-100.0" name="L"/>
  <anchor x="917.0" y="0.0" name="O"/>
  <anchor x="1160.0" y="1200.0" name="R"/>
  <anchor x="600.0" y="1530.0" name="U"/>
  <outline>
    <contour>
      <point x="365.0" y="845.0" type="line"/>
      <point x="365.0" y="1295.0" type="line"/>
      <point x="1010.0" y="1295.0" type="line"/>
      <point x="1010.0" y="1460.0" type="line"/>
      <point x="160.0" y="1460.0" type="line"/>
      <point x="175.0" y="1380.0"/>
      <point x="175.0" y="1222.0"/>
      <point x="175.0" y="1025.0" type="curve" smooth="yes"/>
      <point x="175.0" y="435.0" type="line" smooth="yes"/>
      <point x="175.0" y="238.0"/>
      <point x="175.0" y="80.0"/>
      <point x="160.0" y="0.0" type="curve"/>
      <point x="1040.0" y="0.0" type="line"/>
      <point x="1040.0" y="180.0" type="line"/>
      <point x="960.0" y="166.0"/>
      <point x="826.0" y="165.0"/>
      <point x="629.0" y="165.0" type="curve" smooth="yes"/>
      <point x="365.0" y="165.0" type="line"/>
      <point x="365.0" y="685.0" type="line"/>
      <point x="935.0" y="685.0" type="line"/>
      <point x="935.0" y="845.0" type="line"/>
    </contour>
  </outline>
</glyph>
<glyph name="LtnCapF" format="2">
  <advance width="1150.0"/>
  <unicode hex="0046"/>
  <anchor x="595.0" y="-100.0" name="L"/>
  <anchor x="595.0" y="1530.0" name="U"/>
  <outline>
    <contour>
      <point x="365.0" y="835.0" type="line"/>
      <point x="365.0" y="1295.0" type="line"/>
      <point x="1030.0" y="1295.0" type="line"/>
      <point x="1030.0" y="1460.0" type="line"/>
      <point x="160.0" y="1460.0" type="line"/>
      <point x="175.0" y="1380.0"/>
      <point x="175.0" y="1217.0"/>
      <point x="175.0" y="1020.0" type="curve" smooth="yes"/>
      <point x="175.0" y="435.0" type="line" smooth="yes"/>
      <point x="175.0" y="238.0"/>
      <point x="175.0" y="80.0"/>
      <point x="160.0" y="0.0" type="curve"/>
      <point x="380.0" y="0.0" type="line"/>
      <point x="365.0" y="78.0"/>
      <point x="365.0" y="237.0"/>
      <point x="365.0" y="435.0" type="curve" smooth="yes"/>
      <point x="365.0" y="675.0" type="line"/>
      <point x="945.0" y="675.0" type="line"/>
      <point x="945.0" y="835.0" type="line"/>
    </contour>
  </outline>
</glyph>
<glyph name="LtnCapG" format="2">
  <advance width="1420.0"/>
  <unicode hex="0047"/>
  <anchor x="745.0" y="0.0" name="H"/>
  <anchor x="745.0" y="-100.0" name="L"/>
  <anchor x="745.0" y="1530.0" name="U"/>
  <outline>
    <contour>
      <point x="1275.0" y="745.0" type="line"/>
      <point x="735.0" y="745.0" type="line"/>
      <point x="735.0" y="580.0" type="line"/>
      <point x="1085.0" y="580.0" type="line"/>
      <point x="1085.0" y="245.0" type="line"/>
      <point x="963.0" y="171.0"/>
      <point x="876.0" y="150.0"/>
      <point x="757.0" y="150.0" type="curve" smooth="yes"/>
      <point x="471.0" y="150.0"/>
      <point x="290.0" y="377.0"/>
      <point x="290.0" y="745.0" type="curve" smooth="yes"/>
      <point x="290.0" y="1094.0"/>
      <point x="480.0" y="1315.0"/>
      <point x="785.0" y="1315.0" type="curve" smooth="yes"/>
      <point x="918.0" y="1315.0"/>
      <point x="1046.0" y="1286.0"/>
      <point x="1195.0" y="1165.0" type="curve"/>
      <point x="1260.0" y="1345.0" type="line"/>
      <point x="1085.0" y="1462.0"/>
      <point x="947.0" y="1485.0"/>
      <point x="785.0" y="1485.0" type="curve" smooth="yes"/>
      <point x="402.0" y="1485.0"/>
      <point x="95.0" y="1199.0"/>
      <point x="95.0" y="720.0" type="curve" smooth="yes"/>
      <point x="95.0" y="241.0"/>
      <point x="367.0" y="-25.0"/>
      <point x="745.0" y="-25.0" type="curve" smooth="yes"/>
      <point x="918.0" y="-25.0"/>
      <point x="1070.0" y="11.0"/>
      <point x="1275.0" y="155.0" type="curve"/>
    </contour>
  </outline>
</glyph>
<glyph name="LtnCapH" format="2">
  <advance width="1475.0"/>
  <unicode hex="0048"/>
  <anchor x="285.0" y="0.0" name="H"/>
  <anchor x="725.0" y="-100.0" name="L"/>
  <anchor x="725.0" y="1530.0" name="U"/>
  <outline>
    <contour>
      <point x="1290.0" y="0.0" type="line"/>
      <point x="1275.0" y="80.0"/>
      <point x="1275.0" y="238.0"/>
      <point x="1275.0" y="435.0" type="curve" smooth="yes"/>
      <point x="1275.0" y="1025.0" type="line" smooth="yes"/>
      <point x="1275.0" y="1222.0"/>
      <point x="1275.0" y="1380.0"/>
      <point x="1290.0" y="1460.0" type="curve"/>
      <point x="1085.0" y="1460.0" type="line"/>
      <point x="1085.0" y="835.0" type="line"/>
      <point x="365.0" y="835.0" type="line"/>
      <point x="365.0" y="1460.0" type="line"/>
      <point x="160.0" y="1460.0" type="line"/>
      <point x="175.0" y="1380.0"/>
      <point x="175.0" y="1222.0"/>
      <point x="175.0" y="1025.0" type="curve" smooth="yes"/>
      <point x="175.0" y="435.0" type="line" smooth="yes"/>
      <point x="175.0" y="238.0"/>
      <point x="175.0" y="80.0"/>
      <point x="160.0" y="0.0" type="curve"/>
      <point x="365.0" y="0.0" type="line"/>
      <point x="365.0" y="675.0" type="line"/>
      <point x="1085.0" y="675.0" type="line"/>
      <point x="1085.0" y="0.0" type="line"/>
    </contour>
  </outline>
</glyph>
<glyph name="LtnCapI" format="2">
  <advance width="975.0"/>
  <unicode hex="0049"/>
  <anchor x="477.0" y="0.0" name="H"/>
  <anchor x="477.0" y="-100.0" name="L"/>
  <anchor x="673.0" y="0.0" name="O"/>
  <anchor x="975.0" y="1200.0" name="R"/>
  <anchor x="477.0" y="1530.0" name="U"/>
  <outline>
    <contour>
      <point x="140.0" y="1460.0" type="line"/>
      <point x="140.0" y="1315.0" type="line"/>
      <point x="380.0" y="1315.0" type="line"/>
      <point x="380.0" y="145.0" type="line"/>
      <point x="140.0" y="145.0" type="line"/>
      <point x="140.0" y="0.0" type="line"/>
      <point x="815.0" y="0.0" type="line"/>
      <point x="815.0" y="145.0" type="line"/>
      <point x="570.0" y="145.0" type="line"/>
      <point x="570.0" y="1315.0" type="line"/>
      <point x="815.0" y="1315.0" type="line"/>
      <point x="815.0" y="1460.0" type="line"/>
    </contour>
  </outline>
</glyph>
<glyph name="LtnCapJ" format="2">
  <advance width="965.0"/>
  <unicode hex="004A"/>
  <anchor x="410.0" y="-100.0" name="L"/>
  <anchor x="675.0" y="1530.0" name="U"/>
  <outline>
    <contour>
      <point x="575.0" y="1460.0" type="line"/>
      <point x="588.0" y="1354.0"/>
      <point x="590.0" y="1175.0"/>
      <point x="590.0" y="980.0" type="curve"/>
      <point x="590.0" y="485.0" type="line" smooth="yes"/>
      <point x="590.0" y="256.0"/>
      <point x="487.0" y="155.0"/>
      <point x="340.0" y="155.0" type="curve" smooth="yes"/>
      <point x="248.0" y="155.0"/>
      <point x="147.0" y="198.0"/>
      <point x="80.0" y="275.0" type="curve"/>
      <point x="35.0" y="90.0" type="line"/>
      <point x="106.0" y="9.0"/>
      <point x="250.0" y="-25.0"/>
      <point x="345.0" y="-25.0" type="curve" smooth="yes"/>
      <point x="602.0" y="-25.0"/>
      <point x="780.0" y="119.0"/>
      <point x="780.0" y="535.0" type="curve" smooth="yes"/>
      <point x="780.0" y="1460.0" type="line"/>
    </contour>
  </outline>
</glyph>
<glyph name="LtnCapK" format="2">
  <advance width="1310.0"/>
  <unicode hex="004B"/>
  <anchor x="270.0" y="0.0" name="H"/>
  <anchor x="695.0" y="-100.0" name="L"/>
  <anchor x="650.0" y="1530.0" name="U"/>
  <outline>
    <contour>
      <point x="925.0" y="1460.0" type="line"/>
      <point x="295.0" y="703.0" type="line"/>
      <point x="425.0" y="745.0" type="line"/>
      <point x="530.0" y="740.0" type="line"/>
      <point x="1165.0" y="1460.0" type="line"/>
    </contour>
    <contour>
      <point x="350.0" y="735.0" type="line"/>
      <point x="985.0" y="0.0" type="line"/>
      <point x="1230.0" y="0.0" type="line"/>
      <point x="485.0" y="860.0" type="line"/>
    </contour>
    <contour>
      <point x="365.0" y="1460.0" type="line"/>
      <point x="160.0" y="1460.0" type="line"/>
      <point x="175.0" y="1380.0"/>
      <point x="175.0" y="1222.0"/>
      <point x="175.0" y="1025.0" type="curve" smooth="yes"/>
      <point x="175.0" y="435.0" type="line" smooth="yes"/>
      <point x="175.0" y="238.0"/>
      <point x="175.0" y="80.0"/>
      <point x="160.0" y="0.0" type="curve"/>
      <point x="365.0" y="0.0" type="line"/>
    </contour>
  </outline>
</glyph>
<glyph name="LtnCapL" format="2">
  <advance width="1080.0"/>
  <unicode hex="004C"/>
  <anchor x="592.0" y="0.0" name="H"/>
  <anchor x="592.0" y="-100.0" name="L"/>
  <anchor x="540.0" y="1200.0" name="R"/>
  <anchor x="592.0" y="1530.0" name="U"/>
  <outline>
    <contour>
      <point x="365.0" y="165.0" type="line"/>
      <point x="365.0" y="1460.0" type="line"/>
      <point x="160.0" y="1460.0" type="line"/>
      <point x="175.0" y="1380.0"/>
      <point x="175.0" y="1222.0"/>
      <point x="175.0" y="1025.0" type="curve" smooth="yes"/>
      <point x="175.0" y="435.0" type="line" smooth="yes"/>
      <point x="175.0" y="238.0"/>
      <point x="175.0" y="80.0"/>
      <point x="160.0" y="0.0" type="curve"/>
      <point x="1025.0" y="0.0" type="line"/>
      <point x="1025.0" y="180.0" type="line"/>
      <point x="945.0" y="166.0"/>
      <point x="786.0" y="165.0"/>
      <point x="589.0" y="165.0" type="curve" smooth="yes"/>
    </contour>
  </outline>
</glyph>
<glyph name="LtnCapM" format="2">
  <advance width="1795.0"/>
  <unicode hex="004D"/>
  <anchor x="1521.0" y="0.0" name="H"/>
  <anchor x="885.0" y="-100.0" name="L"/>
  <anchor x="885.0" y="1530.0" name="U"/>
  <outline>
    <contour>
      <point x="885.0" y="205.0" type="line"/>
      <point x="455.0" y="1460.0" type="line"/>
      <point x="285.0" y="1460.0" type="line"/>
      <point x="790.0" y="0.0" type="line"/>
      <point x="985.0" y="0.0" type="line"/>
      <point x="1487.0" y="1460.0" type="line"/>
      <point x="1320.0" y="1460.0" type="line"/>
    </contour>
    <contour>
      <point x="230.0" y="1460.0" type="line"/>
      <point x="230.0" y="1460.0"/>
      <point x="186.0" y="198.0"/>
      <point x="160.0" y="0.0" type="curve"/>
      <point x="345.0" y="0.0" type="line"/>
      <point x="377.0" y="1205.0" type="line"/>
      <point x="405.0" y="1460.0" type="line"/>
    </contour>
    <contour>
      <point x="1610.0" y="0.0" type="line"/>
      <point x="1581.0" y="198.0"/>
      <point x="1540.0" y="1460.0"/>
      <point x="1540.0" y="1460.0" type="curve"/>
      <point x="1365.0" y="1460.0" type="line"/>
      <point x="1397.0" y="1205.0" type="line"/>
      <point x="1425.0" y="0.0" type="line"/>
    </contour>
  </outline>
</glyph>
<glyph name="LtnCapN" format="2">
  <advance width="1500.0"/>
  <unicode hex="004E"/>
  <anchor x="1230.0" y="0.0" name="H"/>
  <anchor x="737.0" y="-100.0" name="L"/>
  <anchor x="737.0" y="1530.0" name="U"/>
  <outline>
    <contour>
      <point x="200.0" y="1355.0" type="line"/>
      <point x="1135.0" y="0.0" type="line"/>
      <point x="1275.0" y="100.0" type="line"/>
      <point x="340.0" y="1460.0" type="line"/>
    </contour>
    <contour>
      <point x="1135.0" y="0.0" type="line"/>
      <point x="1300.0" y="0.0" type="line"/>
      <point x="1300.0" y="1025.0" type="line" smooth="yes"/>
      <point x="1300.0" y="1222.0"/>
      <point x="1301.0" y="1380.0"/>
      <point x="1315.0" y="1460.0" type="curve"/>
      <point x="1135.0" y="1460.0" type="line"/>
    </contour>
    <contour>
      <point x="340.0" y="1460.0" type="line"/>
      <point x="160.0" y="1460.0" type="line"/>
      <point x="175.0" y="1380.0"/>
      <point x="175.0" y="1222.0"/>
      <point x="175.0" y="1025.0" type="curve" smooth="yes"/>
      <point x="175.0" y="435.0" type="line" smooth="yes"/>
      <point x="175.0" y="238.0"/>
      <point x="175.0" y="80.0"/>
      <point x="160.0" y="0.0" type="curve"/>
      <point x="340.0" y="0.0" type="line"/>
    </contour>
  </outline>
</glyph>
<glyph name="LtnCapO" format="2">
  <advance width="1460.0"/>
  <unicode hex="004F"/>
  <anchor x="717.0" y="0.0" name="H"/>
  <anchor x="717.0" y="-100.0" name="L"/>
  <anchor x="994.0" y="0.0" name="O"/>
  <anchor x="1460.0" y="1200.0" name="R"/>
  <anchor x="717.0" y="1530.0" name="U"/>
  <outline>
    <contour>
      <point x="1145.0" y="715.0" type="curve" smooth="yes"/>
      <point x="1145.0" y="360.0"/>
      <point x="965.0" y="150.0"/>
      <point x="720.0" y="150.0" type="curve" smooth="yes"/>
      <point x="460.0" y="150.0"/>
      <point x="290.0" y="380.0"/>
      <point x="290.0" y="745.0" type="curve" smooth="yes"/>
      <point x="290.0" y="1091.0"/>
      <point x="467.0" y="1310.0"/>
      <point x="720.0" y="1310.0" type="curve" smooth="yes"/>
      <point x="974.0" y="1310.0"/>
      <point x="1145.0" y="1084.0"/>
    </contour>
    <contour>
      <point x="1340.0" y="740.0" type="curve" smooth="yes"/>
      <point x="1340.0" y="1219.0"/>
      <point x="1048.0" y="1485.0"/>
      <point x="730.0" y="1485.0" type="curve" smooth="yes"/>
      <point x="407.0" y="1485.0"/>
      <point x="95.0" y="1199.0"/>
      <point x="95.0" y="720.0" type="curve" smooth="yes"/>
      <point x="95.0" y="241.0"/>
      <point x="388.0" y="-25.0"/>
      <point x="710.0" y="-25.0" type="curve" smooth="yes"/>
      <point x="1029.0" y="-25.0"/>
      <point x="1340.0" y="260.0"/>
    </contour>
  </outline>
</glyph>
<glyph name="LtnCapP" format="2">
  <advance width="1195.0"/>
  <unicode hex="0050"/>
  <anchor x="637.0" y="-100.0" name="L"/>
  <anchor x="637.0" y="1530.0" name="U"/>
  <outline>
    <contour>
      <point x="365.0" y="565.0" type="line"/>
      <point x="430.0" y="558.0"/>
      <point x="512.0" y="555.0"/>
      <point x="585.0" y="555.0" type="curve" smooth="yes"/>
      <point x="914.0" y="555.0"/>
      <point x="1115.0" y="736.0"/>
      <point x="1115.0" y="1030.0" type="curve" smooth="yes"/>
      <point x="1115.0" y="1322.0"/>
      <point x="908.0" y="1470.0"/>
      <point x="585.0" y="1470.0" type="curve" smooth="yes"/>
      <point x="372.0" y="1470.0"/>
      <point x="160.0" y="1460.0"/>
      <point x="160.0" y="1460.0" type="curve"/>
      <point x="175.0" y="1380.0"/>
      <point x="175.0" y="1196.0"/>
      <point x="175.0" y="1000.0" type="curve"/>
      <point x="175.0" y="435.0" type="line" smooth="yes"/>
      <point x="175.0" y="238.0"/>
      <point x="175.0" y="80.0"/>
      <point x="160.0" y="0.0" type="curve"/>
      <point x="380.0" y="0.0" type="line"/>
      <point x="366.0" y="78.0"/>
      <point x="365.0" y="237.0"/>
      <point x="365.0" y="435.0" type="curve" smooth="yes"/>
    </contour>
    <contour>
      <point x="365.0" y="1305.0" type="line"/>
      <point x="433.0" y="1308.0"/>
      <point x="481.0" y="1310.0"/>
      <point x="575.0" y="1310.0" type="curve" smooth="yes"/>
      <point x="841.0" y="1310.0"/>
      <point x="925.0" y="1170.0"/>
      <point x="925.0" y="1010.0" type="curve" smooth="yes"/>
      <point x="925.0" y="849.0"/>
      <point x="850.0" y="710.0"/>
      <point x="570.0" y="710.0" type="curve" smooth="yes"/>
      <point x="495.0" y="710.0"/>
      <point x="428.0" y="712.0"/>
      <point x="365.0" y="720.0" type="curve"/>
    </contour>
  </outline>
</glyph>
<glyph name="LtnCapQ" format="2">
  <advance width="1475.0"/>
  <unicode hex="0051"/>
  <anchor x="717.0" y="-270.0" name="L"/>
  <anchor x="717.0" y="1530.0" name="U"/>
  <outline>
    <contour>
      <point x="1340.0" y="740.0" type="curve" smooth="yes"/>
      <point x="1340.0" y="1219.0"/>
      <point x="1053.0" y="1485.0"/>
      <point x="730.0" y="1485.0" type="curve" smooth="yes"/>
      <point x="407.0" y="1485.0"/>
      <point x="95.0" y="1199.0"/>
      <point x="95.0" y="720.0" type="curve" smooth="yes"/>
      <point x="95.0" y="241.0"/>
      <point x="383.0" y="-25.0"/>
      <point x="705.0" y="-25.0" type="curve" smooth="yes"/>
      <point x="767.0" y="-25.0"/>
      <point x="818.0" y="-18.0"/>
      <point x="875.0" y="0.0" type="curve"/>
      <point x="944.0" y="0.0"/>
      <point x="1236.0" y="-190.0"/>
      <point x="1320.0" y="-190.0" type="curve" smooth="yes"/>
      <point x="1374.0" y="-190.0"/>
      <point x="1431.0" y="-81.0"/>
      <point x="1455.0" y="-45.0" type="curve"/>
      <point x="1321.0" y="-28.0"/>
      <point x="1205.0" y="28.0"/>
      <point x="1080.0" y="105.0" type="curve"/>
      <point x="1256.0" y="236.0"/>
      <point x="1340.0" y="479.0"/>
    </contour>
    <contour>
      <point x="1145.0" y="715.0" type="curve" smooth="yes"/>
      <point x="1145.0" y="360.0"/>
      <point x="965.0" y="150.0"/>
      <point x="720.0" y="150.0" type="curve" smooth="yes"/>
      <point x="460.0" y="150.0"/>
      <point x="290.0" y="380.0"/>
      <point x="290.0" y="745.0" type="curve" smooth="yes"/>
      <point x="290.0" y="1091.0"/>
      <point x="467.0" y="1310.0"/>
      <point x="720.0" y="1310.0" type="curve" smooth="yes"/>
      <point x="974.0" y="1310.0"/>
      <point x="1145.0" y="1084.0"/>
    </contour>
  </outline>
</glyph>
<glyph name="LtnCapR" format="2">
  <advance width="1305.0"/>
  <unicode hex="0052"/>
  <anchor x="285.0" y="0.0" name="H"/>
  <anchor x="610.0" y="-100.0" name="L"/>
  <anchor x="610.0" y="1530.0" name="U"/>
  <outline>
    <contour>
      <point x="365.0" y="625.0" type="line"/>
      <point x="620.0" y="625.0" type="line"/>
      <point x="805.0" y="625.0"/>
      <point x="1090.0" y="743.0"/>
      <point x="1090.0" y="1060.0" type="curve" smooth="yes"/>
      <point x="1090.0" y="1349.0"/>
      <point x="876.0" y="1470.0"/>
      <point x="565.0" y="1470.0" type="curve" smooth="yes"/>
      <point x="331.0" y="1470.0"/>
      <point x="160.0" y="1460.0"/>
      <point x="160.0" y="1460.0" type="curve"/>
      <point x="175.0" y="1380.0"/>
      <point x="175.0" y="1196.0"/>
      <point x="175.0" y="1000.0" type="curve" smooth="yes"/>
      <point x="175.0" y="435.0" type="line"/>
      <point x="175.0" y="238.0"/>
      <point x="175.0" y="80.0"/>
      <point x="160.0" y="0.0" type="curve"/>
      <point x="380.0" y="0.0" type="line"/>
      <point x="366.0" y="78.0"/>
      <point x="365.0" y="238.0"/>
      <point x="365.0" y="435.0" type="curve"/>
    </contour>
    <contour>
      <point x="365.0" y="1305.0" type="line"/>
      <point x="418.0" y="1307.0"/>
      <point x="485.0" y="1310.0"/>
      <point x="555.0" y="1310.0" type="curve" smooth="yes"/>
      <point x="800.0" y="1310.0"/>
      <point x="900.0" y="1216.0"/>
      <point x="900.0" y="1045.0" type="curve" smooth="yes"/>
      <point x="900.0" y="879.0"/>
      <point x="780.0" y="780.0"/>
      <point x="555.0" y="780.0" type="curve"/>
      <point x="365.0" y="780.0" type="line"/>
    </contour>
    <contour>
      <point x="561.0" y="635.0" type="line"/>
      <point x="990.0" y="0.0" type="line"/>
      <point x="1245.0" y="0.0" type="line"/>
      <point x="1178.0" y="73.0"/>
      <point x="715.0" y="710.0"/>
      <point x="715.0" y="710.0" type="curve"/>
    </contour>
  </outline>
</glyph>
<glyph name="LtnCapS" format="2">
  <advance width="1175.0"/>
  <unicode hex="0053"/>
  <anchor x="580.0" y="0.0" name="H"/>
  <anchor x="580.0" y="-100.0" name="L"/>
  <anchor x="580.0" y="1530.0" name="U"/>
  <outline>
    <contour>
      <point x="1000.0" y="1395.0" type="line"/>
      <point x="870.0" y="1458.0"/>
      <point x="759.0" y="1485.0"/>
      <point x="605.0" y="1485.0" type="curve" smooth="yes"/>
      <point x="273.0" y="1485.0"/>
      <point x="135.0" y="1250.0"/>
      <point x="135.0" y="1080.0" type="curve" smooth="yes"/>
      <point x="135.0" y="910.0"/>
      <point x="203.0" y="778.0"/>
      <point x="515.0" y="685.0" type="curve" smooth="yes"/>
      <point x="827.0" y="591.0"/>
      <point x="875.0" y="510.0"/>
      <point x="875.0" y="405.0" type="curve" smooth="yes"/>
      <point x="875.0" y="243.0"/>
      <point x="726.0" y="150.0"/>
      <point x="565.0" y="150.0" type="curve" smooth="yes"/>
      <point x="417.0" y="150.0"/>
      <point x="272.0" y="200.0"/>
      <point x="140.0" y="315.0" type="curve"/>
      <point x="95.0" y="110.0" type="line"/>
      <point x="197.0" y="31.0"/>
      <point x="372.0" y="-25.0"/>
      <point x="565.0" y="-25.0" type="curve" smooth="yes"/>
      <point x="838.0" y="-25.0"/>
      <point x="1065.0" y="157.0"/>
      <point x="1065.0" y="425.0" type="curve" smooth="yes"/>
      <point x="1065.0" y="641.0"/>
      <point x="920.0" y="762.0"/>
      <point x="655.0" y="840.0" type="curve" smooth="yes"/>
      <point x="370.0" y="923.0"/>
      <point x="325.0" y="985.0"/>
      <point x="325.0" y="1095.0" type="curve" smooth="yes"/>
      <point x="325.0" y="1205.0"/>
      <point x="435.0" y="1310.0"/>
      <point x="595.0" y="1310.0" type="curve" smooth="yes"/>
      <point x="723.0" y="1310.0"/>
      <point x="817.0" y="1279.0"/>
      <point x="960.0" y="1200.0" type="curve"/>
    </contour>
  </outline>
</glyph>
<glyph name="LtnCapT" format="2">
  <advance width="1265.0"/>
  <unicode hex="0054"/>
  <anchor x="622.0" y="0.0" name="H"/>
  <anchor x="622.0" y="-100.0" name="L"/>
  <anchor x="622.0" y="1530.0" name="U"/>
  <outline>
    <contour>
      <point x="45.0" y="1460.0" type="line"/>
      <point x="45.0" y="1275.0" type="line"/>
      <point x="125.0" y="1292.0"/>
      <point x="201.0" y="1295.0"/>
      <point x="290.0" y="1295.0" type="curve" smooth="yes"/>
      <point x="525.0" y="1295.0" type="line"/>
      <point x="525.0" y="435.0" type="line" smooth="yes"/>
      <point x="525.0" y="238.0"/>
      <point x="522.0" y="80.0"/>
      <point x="505.0" y="0.0" type="curve"/>
      <point x="735.0" y="0.0" type="line"/>
      <point x="718.0" y="80.0"/>
      <point x="715.0" y="238.0"/>
      <point x="715.0" y="435.0" type="curve" smooth="yes"/>
      <point x="715.0" y="1295.0" type="line"/>
      <point x="955.0" y="1295.0" type="line" smooth="yes"/>
      <point x="1045.0" y="1295.0"/>
      <point x="1120.0" y="1292.0"/>
      <point x="1200.0" y="1275.0" type="curve"/>
      <point x="1200.0" y="1460.0" type="line"/>
    </contour>
  </outline>
</glyph>
<glyph name="LtnCapU" format="2">
  <advance width="1440.0"/>
  <unicode hex="0055"/>
  <anchor x="707.0" y="0.0" name="H"/>
  <anchor x="707.0" y="-100.0" name="L"/>
  <anchor x="1026.0" y="0.0" name="O"/>
  <anchor x="1400.0" y="1200.0" name="R"/>
  <anchor x="707.0" y="1530.0" name="U"/>
  <outline>
    <contour>
      <point x="1050.0" y="1460.0" type="line"/>
      <point x="1050.0" y="560.0" type="line" smooth="yes"/>
      <point x="1050.0" y="299.0"/>
      <point x="968.0" y="135.0"/>
      <point x="710.0" y="135.0" type="curve" smooth="yes"/>
      <point x="447.0" y="135.0"/>
      <point x="365.0" y="299.0"/>
      <point x="365.0" y="560.0" type="curve" smooth="yes"/>
      <point x="365.0" y="1460.0" type="line"/>
      <point x="160.0" y="1460.0" type="line"/>
      <point x="174.0" y="1380.0"/>
      <point x="175.0" y="1222.0"/>
      <point x="175.0" y="1025.0" type="curve" smooth="yes"/>
      <point x="175.0" y="515.0" type="line"/>
      <point x="175.0" y="190.0"/>
      <point x="345.0" y="-25.0"/>
      <point x="710.0" y="-25.0" type="curve" smooth="yes"/>
      <point x="1071.0" y="-25.0"/>
      <point x="1240.0" y="190.0"/>
      <point x="1240.0" y="515.0" type="curve"/>
      <point x="1240.0" y="1025.0" type="line" smooth="yes"/>
      <point x="1240.0" y="1232.0"/>
      <point x="1242.0" y="1380.0"/>
      <point x="1255.0" y="1460.0" type="curve"/>
    </contour>
  </outline>
</glyph>
<glyph name="LtnCapV" format="2">
  <advance width="1365.0"/>
  <unicode hex="0056"/>
  <anchor x="680.0" y="0.0" name="H"/>
  <anchor x="672.0" y="-100.0" name="L"/>
  <anchor x="880.0" y="0.0" name="O"/>
  <anchor x="672.0" y="1530.0" name="U"/>
  <outline>
    <contour>
      <point x="1095.0" y="1460.0" type="line"/>
      <point x="672.0" y="195.0" type="line"/>
      <point x="250.0" y="1460.0" type="line"/>
      <point x="35.0" y="1460.0" type="line"/>
      <point x="68.0" y="1378.0"/>
      <point x="101.0" y="1288.0"/>
      <point x="170.0" y="1095.0" type="curve" smooth="yes"/>
      <point x="560.0" y="0.0" type="line"/>
      <point x="785.0" y="0.0" type="line"/>
      <point x="1170.0" y="1095.0" type="line" smooth="yes"/>
      <point x="1238.0" y="1289.0"/>
      <point x="1274.0" y="1378.0"/>
      <point x="1310.0" y="1460.0" type="curve"/>
    </contour>
  </outline>
</glyph>
<glyph name="LtnCapW" format="2">
  <advance width="2080.0"/>
  <unicode hex="0057"/>
  <anchor x="1027.0" y="-100.0" name="L"/>
  <anchor x="1027.0" y="1530.0" name="U"/>
  <outline>
    <contour>
      <point x="1480.0" y="0.0" type="line"/>
      <point x="1595.0" y="0.0" type="line"/>
      <point x="1900.0" y="1095.0" type="line" smooth="yes"/>
      <point x="1954.0" y="1289.0"/>
      <point x="1983.0" y="1378.0"/>
      <point x="2015.0" y="1460.0" type="curve"/>
      <point x="1795.0" y="1460.0" type="line"/>
      <point x="1470.0" y="130.0" type="line"/>
    </contour>
    <contour>
      <point x="1120.0" y="1460.0" type="line"/>
      <point x="935.0" y="1460.0" type="line"/>
      <point x="990.0" y="1305.0" type="line"/>
      <point x="1370.0" y="0.0" type="line"/>
      <point x="1480.0" y="0.0" type="line"/>
      <point x="1500.0" y="130.0" type="line"/>
    </contour>
    <contour>
      <point x="580.0" y="0.0" type="line"/>
      <point x="685.0" y="0.0" type="line"/>
      <point x="1065.0" y="1305.0" type="line"/>
      <point x="1120.0" y="1460.0" type="line"/>
      <point x="935.0" y="1460.0" type="line"/>
      <point x="560.0" y="130.0" type="line"/>
    </contour>
    <contour>
      <point x="260.0" y="1460.0" type="line"/>
      <point x="40.0" y="1460.0" type="line"/>
      <point x="71.0" y="1381.0"/>
      <point x="102.0" y="1286.0"/>
      <point x="155.0" y="1095.0" type="curve" smooth="yes"/>
      <point x="460.0" y="0.0" type="line"/>
      <point x="580.0" y="0.0" type="line"/>
      <point x="590.0" y="130.0" type="line"/>
    </contour>
  </outline>
</glyph>
<glyph name="LtnCapX" format="2">
  <advance width="1325.0"/>
  <unicode hex="0058"/>
  <anchor x="650.0" y="-100.0" name="L"/>
  <anchor x="650.0" y="1530.0" name="U"/>
  <outline>
    <contour>
      <point x="537.0" y="781.0" type="line"/>
      <point x="265.0" y="340.0" type="line" smooth="yes"/>
      <point x="136.0" y="132.0"/>
      <point x="103.0" y="86.0"/>
      <point x="40.0" y="0.0" type="curve"/>
      <point x="270.0" y="0.0" type="line"/>
      <point x="642.0" y="614.0" type="line"/>
      <point x="1030.0" y="0.0" type="line"/>
      <point x="1260.0" y="0.0" type="line"/>
      <point x="1199.0" y="82.0"/>
      <point x="1165.0" y="127.0"/>
      <point x="1033.0" y="336.0" type="curve" smooth="yes"/>
      <point x="761.0" y="767.0" type="line"/>
      <point x="972.0" y="1110.0" type="line" smooth="yes"/>
      <point x="1097.0" y="1313.0"/>
      <point x="1148.0" y="1383.0"/>
      <point x="1210.0" y="1460.0" type="curve"/>
      <point x="975.0" y="1460.0" type="line"/>
      <point x="656.0" y="934.0" type="line"/>
      <point x="325.0" y="1460.0" type="line"/>
      <point x="90.0" y="1460.0" type="line"/>
      <point x="154.0" y="1376.0"/>
      <point x="201.0" y="1315.0"/>
      <point x="330.0" y="1110.0" type="curve"/>
    </contour>
  </outline>
</glyph>
<glyph name="LtnCapY" format="2">
  <advance width="1320.0"/>
  <unicode hex="0059"/>
  <anchor x="650.0" y="-100.0" name="L"/>
  <anchor x="650.0" y="1530.0" name="U"/>
  <outline>
    <contour>
      <point x="35.0" y="1460.0" type="line"/>
      <point x="147.0" y="1311.0"/>
      <point x="213.0" y="1197.0"/>
      <point x="290.0" y="1065.0" type="curve" smooth="yes"/>
      <point x="555.0" y="611.0" type="line"/>
      <point x="555.0" y="435.0" type="line" smooth="yes"/>
      <point x="555.0" y="238.0"/>
      <point x="555.0" y="80.0"/>
      <point x="540.0" y="0.0" type="curve"/>
      <point x="760.0" y="0.0" type="line"/>
      <point x="745.0" y="80.0"/>
      <point x="745.0" y="238.0"/>
      <point x="745.0" y="435.0" type="curve" smooth="yes"/>
      <point x="745.0" y="603.0" type="line"/>
      <point x="1015.0" y="1065.0" type="line" smooth="yes"/>
      <point x="1091.0" y="1195.0"/>
      <point x="1147.0" y="1291.0"/>
      <point x="1265.0" y="1460.0" type="curve"/>
      <point x="1035.0" y="1460.0" type="line"/>
      <point x="660.0" y="799.0" type="line"/>
      <point x="265.0" y="1460.0" type="line"/>
    </contour>
  </outline>
</glyph>
<glyph name="LftSqrBrac" format="2">
  <advance width="790.0"/>
  <unicode hex="005B"/>
  <outline>
    <contour>
      <point x="640.0" y="-410.0" type="line"/>
      <point x="640.0" y="-260.0" type="line"/>
      <point x="385.0" y="-260.0" type="line"/>
      <point x="385.0" y="1450.0" type="line"/>
      <point x="640.0" y="1450.0" type="line"/>
      <point x="640.0" y="1600.0" type="line"/>
      <point x="200.0" y="1600.0" type="line"/>
      <point x="200.0" y="-410.0" type="line"/>
    </contour>
  </outline>
</glyph>
<glyph name="RtSqrBrac" format="2">
  <advance width="790.0"/>
  <unicode hex="005D"/>
  <outline>
    <contour>
      <point x="590.0" y="-410.0" type="line"/>
      <point x="590.0" y="1600.0" type="line"/>
      <point x="150.0" y="1600.0" type="line"/>
      <point x="150.0" y="1450.0" type="line"/>
      <point x="405.0" y="1450.0" type="line"/>
      <point x="405.0" y="-260.0" type="line"/>
      <point x="150.0" y="-260.0" type="line"/>
      <point x="150.0" y="-410.0" type="line"/>
    </contour>
  </outline>
</glyph>
<glyph name="LowLine" format="2">
  <advance width="1274.0"/>
  <unicode hex="005F"/>
  <outline>
    <contour>
      <point x="0.0" y="-320.0" type="line"/>
      <point x="1274.0" y="-320.0" type="line"/>
      <point x="1274.0" y="-170.0" type="line"/>
      <point x="0.0" y="-170.0" type="line"/>
    </contour>
  </outline>
</glyph>
<glyph name="LtnSmA" format="2">
  <advance width="1120"/>
  <unicode hex="0061"/>
  <note>
GlyphNote A
</note>
  <anchor x="540" y="0" name="H"/>
  <anchor x="540" y="-100" name="L"/>
  <anchor x="1125" y="0" name="O"/>
  <anchor x="1120" y="1000" name="R"/>
  <anchor x="540" y="1100" name="U"/>
  <outline>
    <contour>
      <point x="950" y="760" type="line"/>
      <point x="950" y="919"/>
      <point x="800" y="1040"/>
      <point x="570" y="1040" type="curve" smooth="yes"/>
      <point x="418" y="1040"/>
      <point x="312" y="994"/>
      <point x="209" y="950" type="curve"/>
      <point x="203" y="907"/>
      <point x="200" y="799"/>
      <point x="199" y="755" type="curve"/>
      <point x="316" y="837"/>
      <point x="419" y="880"/>
      <point x="525" y="880" type="curve" smooth="yes"/>
      <point x="675" y="880"/>
      <point x="765" y="831"/>
      <point x="765" y="710" type="curve" smooth="yes"/>
      <point x="765" y="635" type="line"/>
      <point x="724" y="632"/>
      <point x="564" y="617"/>
      <point x="495" y="610" type="curve" smooth="yes"/>
      <point x="186" y="580"/>
      <point x="95" y="407"/>
      <point x="95" y="255" type="curve" smooth="yes"/>
      <point x="95" y="107"/>
      <point x="232" y="-25"/>
      <point x="420" y="-25" type="curve" smooth="yes"/>
      <point x="544" y="-25"/>
      <point x="677" y="29"/>
      <point x="795" y="155" type="curve"/>
      <point x="809" y="91"/>
      <point x="833" y="32"/>
      <point x="845" y="0" type="curve"/>
      <point x="1025" y="0" type="line"/>
      <point x="981" y="112"/>
      <point x="950" y="226"/>
      <point x="950" y="370" type="curve"/>
    </contour>
    <contour>
      <point x="765" y="325" type="line"/>
      <point x="644" y="164"/>
      <point x="552" y="140"/>
      <point x="450" y="140" type="curve" smooth="yes"/>
      <point x="340" y="140"/>
      <point x="275" y="191"/>
      <point x="275" y="280" type="curve" smooth="yes"/>
      <point x="275" y="372"/>
      <point x="335" y="450"/>
      <point x="505" y="470" type="curve" smooth="yes"/>
      <point x="568" y="478"/>
      <point x="715" y="493"/>
      <point x="765" y="495" type="curve"/>
    </contour>
  </outline>
</glyph>
<glyph name="LtnSmB" format="2">
  <advance width="1155.0"/>
  <unicode hex="0062"/>
  <anchor x="590.0" y="0.0" name="H"/>
  <anchor x="590.0" y="-100.0" name="L"/>
  <anchor x="1155.0" y="1000.0" name="R"/>
  <anchor x="590.0" y="1635.0" name="U"/>
  <outline>
    <contour>
      <point x="130.0" y="1600.0" type="line"/>
      <point x="145.0" y="1488.0"/>
      <point x="145.0" y="1273.0"/>
      <point x="145.0" y="1130.0" type="curve" smooth="yes"/>
      <point x="145.0" y="936.0"/>
      <point x="145.0" y="228.0"/>
      <point x="145.0" y="65.0" type="curve"/>
      <point x="272.0" y="26.0"/>
      <point x="413.0" y="-25.0"/>
      <point x="575.0" y="-25.0" type="curve" smooth="yes"/>
      <point x="870.0" y="-25.0"/>
      <point x="1060.0" y="197.0"/>
      <point x="1060.0" y="540.0" type="curve" smooth="yes"/>
      <point x="1060.0" y="832.0"/>
      <point x="917.0" y="1040.0"/>
      <point x="715.0" y="1040.0" type="curve" smooth="yes"/>
      <point x="547.0" y="1040.0"/>
      <point x="423.0" y="947.0"/>
      <point x="330.0" y="825.0" type="curve"/>
      <point x="330.0" y="916.0"/>
      <point x="330.0" y="1600.0"/>
      <point x="330.0" y="1600.0" type="curve"/>
    </contour>
    <contour>
      <point x="330.0" y="585.0" type="line"/>
      <point x="398.0" y="751.0"/>
      <point x="531.0" y="865.0"/>
      <point x="655.0" y="865.0" type="curve" smooth="yes"/>
      <point x="799.0" y="865.0"/>
      <point x="880.0" y="727.0"/>
      <point x="880.0" y="505.0" type="curve" smooth="yes"/>
      <point x="880.0" y="280.0"/>
      <point x="752.0" y="130.0"/>
      <point x="575.0" y="130.0" type="curve" smooth="yes"/>
      <point x="489.0" y="130.0"/>
      <point x="428.0" y="144.0"/>
      <point x="330.0" y="185.0" type="curve"/>
    </contour>
  </outline>
</glyph>
<glyph name="LtnSmC" format="2">
  <advance width="1020.0"/>
  <unicode hex="0063"/>
  <anchor x="580.0" y="0.0" name="H"/>
  <anchor x="580.0" y="-100.0" name="L"/>
  <anchor x="1020.0" y="1000.0" name="R"/>
  <anchor x="570.0" y="1100.0" name="U"/>
  <outline>
    <contour>
      <point x="905.0" y="260.0" type="line"/>
      <point x="818.0" y="183.0"/>
      <point x="720.0" y="140.0"/>
      <point x="600.0" y="140.0" type="curve" smooth="yes"/>
      <point x="406.0" y="140.0"/>
      <point x="285.0" y="285.0"/>
      <point x="285.0" y="500.0" type="curve" smooth="yes"/>
      <point x="285.0" y="736.0"/>
      <point x="422.0" y="875.0"/>
      <point x="600.0" y="875.0" type="curve" smooth="yes"/>
      <point x="703.0" y="875.0"/>
      <point x="790.0" y="841.0"/>
      <point x="880.0" y="775.0" type="curve"/>
      <point x="915.0" y="955.0" type="line"/>
      <point x="842.0" y="1005.0"/>
      <point x="748.0" y="1040.0"/>
      <point x="615.0" y="1040.0" type="curve" smooth="yes"/>
      <point x="297.0" y="1040.0"/>
      <point x="95.0" y="792.0"/>
      <point x="95.0" y="490.0" type="curve" smooth="yes"/>
      <point x="95.0" y="171.0"/>
      <point x="312.0" y="-25.0"/>
      <point x="580.0" y="-25.0" type="curve" smooth="yes"/>
      <point x="730.0" y="-25.0"/>
      <point x="824.0" y="9.0"/>
      <point x="925.0" y="85.0" type="curve"/>
    </contour>
  </outline>
</glyph>
<glyph name="LtnSmD" format="2">
  <advance width="1190.0"/>
  <unicode hex="0064"/>
  <anchor x="605.0" y="0.0" name="H"/>
  <anchor x="605.0" y="-100.0" name="L"/>
  <anchor x="1190.0" y="1000.0" name="R"/>
  <anchor x="605.0" y="1635.0" name="U"/>
  <outline>
    <contour>
      <point x="1030.0" y="1600.0" type="line"/>
      <point x="820.0" y="1600.0" type="line"/>
      <point x="839.0" y="1516.0"/>
      <point x="845.0" y="1395.0"/>
      <point x="845.0" y="1235.0" type="curve"/>
      <point x="845.0" y="955.0" type="line"/>
      <point x="767.0" y="999.0"/>
      <point x="665.0" y="1040.0"/>
      <point x="580.0" y="1040.0" type="curve" smooth="yes"/>
      <point x="312.0" y="1040.0"/>
      <point x="105.0" y="814.0"/>
      <point x="105.0" y="460.0" type="curve" smooth="yes"/>
      <point x="105.0" y="167.0"/>
      <point x="261.0" y="-25.0"/>
      <point x="505.0" y="-25.0" type="curve" smooth="yes"/>
      <point x="652.0" y="-25.0"/>
      <point x="775.0" y="50.0"/>
      <point x="870.0" y="185.0" type="curve"/>
      <point x="887.0" y="111.0"/>
      <point x="910.0" y="34.0"/>
      <point x="925.0" y="0.0" type="curve"/>
      <point x="1105.0" y="0.0" type="line"/>
      <point x="1062.0" y="112.0"/>
      <point x="1030.0" y="278.0"/>
      <point x="1030.0" y="530.0" type="curve"/>
    </contour>
    <contour>
      <point x="845.0" y="400.0" type="line"/>
      <point x="790.0" y="268.0"/>
      <point x="662.0" y="135.0"/>
      <point x="540.0" y="135.0" type="curve" smooth="yes"/>
      <point x="366.0" y="135.0"/>
      <point x="290.0" y="258.0"/>
      <point x="290.0" y="490.0" type="curve" smooth="yes"/>
      <point x="290.0" y="727.0"/>
      <point x="429.0" y="870.0"/>
      <point x="580.0" y="870.0" type="curve" smooth="yes"/>
      <point x="681.0" y="870.0"/>
      <point x="746.0" y="848.0"/>
      <point x="845.0" y="795.0" type="curve"/>
    </contour>
  </outline>
</glyph>
<glyph name="LtnSmE" format="2">
  <advance width="1095.0"/>
  <unicode hex="0065"/>
  <anchor x="545.0" y="0.0" name="H"/>
  <anchor x="569.0" y="-100.0" name="L"/>
  <anchor x="925.0" y="0.0" name="O"/>
  <anchor x="1095.0" y="1000.0" name="R"/>
  <anchor x="569.0" y="1100.0" name="U"/>
  <outline>
    <contour>
      <point x="989.0" y="485.0" type="line"/>
      <point x="990.0" y="503.0"/>
      <point x="990.0" y="545.0"/>
      <point x="990.0" y="563.0" type="curve" smooth="yes"/>
      <point x="990.0" y="788.0"/>
      <point x="905.0" y="1040.0"/>
      <point x="575.0" y="1040.0" type="curve" smooth="yes"/>
      <point x="279.0" y="1040.0"/>
      <point x="95.0" y="826.0"/>
      <point x="95.0" y="495.0" type="curve" smooth="yes"/>
      <point x="95.0" y="155.0"/>
      <point x="320.0" y="-25.0"/>
      <point x="575.0" y="-25.0" type="curve" smooth="yes"/>
      <point x="729.0" y="-25.0"/>
      <point x="853.0" y="2.0"/>
      <point x="995.0" y="75.0" type="curve"/>
      <point x="975.0" y="240.0" type="line"/>
      <point x="853.0" y="166.0"/>
      <point x="729.0" y="140.0"/>
      <point x="600.0" y="140.0" type="curve" smooth="yes"/>
      <point x="414.0" y="140.0"/>
      <point x="280.0" y="258.0"/>
      <point x="280.0" y="505.0" type="curve" smooth="yes"/>
      <point x="280.0" y="770.0"/>
      <point x="385.0" y="890.0"/>
      <point x="560.0" y="890.0" type="curve" smooth="yes"/>
      <point x="705.0" y="890.0"/>
      <point x="810.0" y="797.0"/>
      <point x="810.0" y="625.0" type="curve"/>
      <point x="245.0" y="625.0" type="line"/>
      <point x="245.0" y="485.0" type="line"/>
    </contour>
  </outline>
</glyph>
<glyph name="LtnSmF" format="2">
  <advance width="750.0"/>
  <unicode hex="0066"/>
  <anchor x="370.0" y="0.0" name="H"/>
  <anchor x="335.0" y="-100.0" name="L"/>
  <anchor x="560.0" y="1635.0" name="U"/>
  <outline>
    <contour>
      <point x="40.0" y="850.0" type="line"/>
      <point x="240.0" y="850.0" type="line"/>
      <point x="240.0" y="0.0" type="line"/>
      <point x="455.0" y="0.0" type="line"/>
      <point x="433.0" y="105.0"/>
      <point x="425.0" y="300.0"/>
      <point x="425.0" y="494.0" type="curve" smooth="yes"/>
      <point x="425.0" y="850.0" type="line"/>
      <point x="695.0" y="850.0" type="line"/>
      <point x="695.0" y="995.0" type="line"/>
      <point x="425.0" y="995.0" type="line"/>
      <point x="425.0" y="1210.0" type="line" smooth="yes"/>
      <point x="425.0" y="1381.0"/>
      <point x="481.0" y="1450.0"/>
      <point x="585.0" y="1450.0" type="curve" smooth="yes"/>
      <point x="643.0" y="1450.0"/>
      <point x="710.0" y="1427.0"/>
      <point x="760.0" y="1390.0" type="curve"/>
      <point x="805.0" y="1550.0" type="line"/>
      <point x="743.0" y="1594.0"/>
      <point x="663.0" y="1620.0"/>
      <point x="585.0" y="1620.0" type="curve" smooth="yes"/>
      <point x="369.0" y="1620.0"/>
      <point x="240.0" y="1470.0"/>
      <point x="240.0" y="1170.0" type="curve" smooth="yes"/>
      <point x="240.0" y="995.0" type="line"/>
      <point x="40.0" y="995.0" type="line"/>
    </contour>
  </outline>
</glyph>
<glyph name="LtnSmG" format="2">
  <advance width="1095.0"/>
  <unicode hex="0067"/>
  <anchor x="545.0" y="-432.0" name="H"/>
  <anchor x="545.0" y="-535.0" name="L"/>
  <anchor x="1095.0" y="1000.0" name="R"/>
  <anchor x="515.0" y="1100.0" name="U"/>
  <outline>
    <contour>
      <point x="330.0" y="395.0" type="line"/>
      <point x="234.0" y="357.0"/>
      <point x="180.0" y="275.0"/>
      <point x="180.0" y="215.0" type="curve" smooth="yes"/>
      <point x="180.0" y="121.0"/>
      <point x="263.0" y="27.0"/>
      <point x="545.0" y="-5.0" type="curve" smooth="yes"/>
      <point x="805.0" y="-35.0"/>
      <point x="880.0" y="-90.0"/>
      <point x="880.0" y="-170.0" type="curve" smooth="yes"/>
      <point x="880.0" y="-255.0"/>
      <point x="731.0" y="-360.0"/>
      <point x="550.0" y="-360.0" type="curve" smooth="yes"/>
      <point x="323.0" y="-360.0"/>
      <point x="215.0" y="-261.0"/>
      <point x="215.0" y="-180.0" type="curve" smooth="yes"/>
      <point x="215.0" y="-121.0"/>
      <point x="244.0" y="-56.0"/>
      <point x="465.0" y="20.0" type="curve"/>
      <point x="459.0" y="49.0"/>
      <point x="290.0" y="75.0"/>
      <point x="290.0" y="75.0" type="curve"/>
      <point x="113.0" y="2.0"/>
      <point x="30.0" y="-89.0"/>
      <point x="30.0" y="-200.0" type="curve" smooth="yes"/>
      <point x="30.0" y="-409.0"/>
      <point x="303.0" y="-505.0"/>
      <point x="535.0" y="-505.0" type="curve" smooth="yes"/>
      <point x="777.0" y="-505.0"/>
      <point x="1065.0" y="-375.0"/>
      <point x="1065.0" y="-160.0" type="curve" smooth="yes"/>
      <point x="1065.0" y="-8.0"/>
      <point x="967.0" y="90.0"/>
      <point x="670.0" y="125.0" type="curve" smooth="yes"/>
      <point x="410.0" y="156.0"/>
      <point x="345.0" y="198.0"/>
      <point x="345.0" y="235.0" type="curve" smooth="yes"/>
      <point x="345.0" y="271.0"/>
      <point x="384.0" y="316.0"/>
      <point x="500.0" y="350.0" type="curve"/>
    </contour>
    <contour>
      <point x="1050.0" y="1040.0" type="line"/>
      <point x="951.0" y="1033.0"/>
      <point x="819.0" y="997.0"/>
      <point x="730.0" y="940.0" type="curve"/>
      <point x="795.0" y="825.0" type="line"/>
      <point x="887.0" y="863.0"/>
      <point x="967.0" y="878.0"/>
      <point x="1040.0" y="880.0" type="curve"/>
    </contour>
    <contour>
      <point x="115.0" y="680.0" type="curve" smooth="yes"/>
      <point x="115.0" y="476.0"/>
      <point x="289.0" y="325.0"/>
      <point x="515.0" y="325.0" type="curve" smooth="yes"/>
      <point x="742.0" y="325.0"/>
      <point x="915.0" y="476.0"/>
      <point x="915.0" y="680.0" type="curve" smooth="yes"/>
      <point x="915.0" y="884.0"/>
      <point x="742.0" y="1040.0"/>
      <point x="515.0" y="1040.0" type="curve" smooth="yes"/>
      <point x="289.0" y="1040.0"/>
      <point x="115.0" y="884.0"/>
    </contour>
    <contour>
      <point x="285.0" y="680.0" type="curve" smooth="yes"/>
      <point x="285.0" y="803.0"/>
      <point x="382.0" y="895.0"/>
      <point x="515.0" y="895.0" type="curve" smooth="yes"/>
      <point x="649.0" y="895.0"/>
      <point x="745.0" y="803.0"/>
      <point x="745.0" y="680.0" type="curve" smooth="yes"/>
      <point x="745.0" y="557.0"/>
      <point x="649.0" y="465.0"/>
      <point x="515.0" y="465.0" type="curve" smooth="yes"/>
      <point x="382.0" y="465.0"/>
      <point x="285.0" y="557.0"/>
    </contour>
  </outline>
</glyph>
<glyph name="LtnSmH" format="2">
  <advance width="1175.0"/>
  <unicode hex="0068"/>
  <anchor x="250.0" y="0.0" name="H"/>
  <anchor x="585.0" y="-100.0" name="L"/>
  <anchor x="585.0" y="1635.0" name="U"/>
  <outline>
    <contour>
      <point x="1040.0" y="0.0" type="line"/>
      <point x="1040.0" y="0.0"/>
      <point x="1040.0" y="459.0"/>
      <point x="1040.0" y="625.0" type="curve" smooth="yes"/>
      <point x="1040.0" y="900.0"/>
      <point x="923.0" y="1040.0"/>
      <point x="710.0" y="1040.0" type="curve" smooth="yes"/>
      <point x="570.0" y="1040.0"/>
      <point x="428.0" y="969.0"/>
      <point x="330.0" y="830.0" type="curve"/>
      <point x="330.0" y="877.0"/>
      <point x="330.0" y="1600.0"/>
      <point x="330.0" y="1600.0" type="curve"/>
      <point x="130.0" y="1600.0" type="line"/>
      <point x="145.0" y="1514.0"/>
      <point x="145.0" y="1345.0"/>
      <point x="145.0" y="1130.0" type="curve" smooth="yes"/>
      <point x="145.0" y="935.0"/>
      <point x="145.0" y="0.0"/>
      <point x="145.0" y="0.0" type="curve"/>
      <point x="330.0" y="0.0" type="line"/>
      <point x="330.0" y="580.0" type="line"/>
      <point x="374.0" y="716.0"/>
      <point x="511.0" y="865.0"/>
      <point x="655.0" y="865.0" type="curve" smooth="yes"/>
      <point x="789.0" y="865.0"/>
      <point x="855.0" y="800.0"/>
      <point x="855.0" y="550.0" type="curve" smooth="yes"/>
      <point x="855.0" y="413.0"/>
      <point x="855.0" y="0.0"/>
      <point x="855.0" y="0.0" type="curve"/>
    </contour>
  </outline>
</glyph>
<glyph name="LtnSmI" format="2">
  <advance width="565.0"/>
  <unicode hex="0069"/>
  <anchor x="282.0" y="0.0" name="H"/>
  <anchor x="285.0" y="-100.0" name="L"/>
  <anchor x="500.0" y="0.0" name="O"/>
  <anchor x="555.0" y="1000.0" name="R"/>
  <anchor x="282.0" y="1100.0" name="U"/>
  <outline>
    <contour>
      <point x="375.0" y="1020.0" type="line"/>
      <point x="175.0" y="1020.0" type="line"/>
      <point x="188.0" y="915.0"/>
      <point x="190.0" y="725.0"/>
      <point x="190.0" y="530.0" type="curve" smooth="yes"/>
      <point x="190.0" y="336.0"/>
      <point x="190.0" y="0.0"/>
      <point x="190.0" y="0.0" type="curve"/>
      <point x="395.0" y="0.0" type="line"/>
      <point x="382.0" y="107.0"/>
      <point x="375.0" y="346.0"/>
      <point x="375.0" y="475.0" type="curve" smooth="yes"/>
    </contour>
    <contour>
      <point x="155.0" y="1345.0" type="curve" smooth="yes"/>
      <point x="155.0" y="1271.0"/>
      <point x="206.0" y="1210.0"/>
      <point x="280.0" y="1210.0" type="curve" smooth="yes"/>
      <point x="355.0" y="1210.0"/>
      <point x="410.0" y="1271.0"/>
      <point x="410.0" y="1345.0" type="curve" smooth="yes"/>
      <point x="410.0" y="1419.0"/>
      <point x="355.0" y="1480.0"/>
      <point x="280.0" y="1480.0" type="curve" smooth="yes"/>
      <point x="206.0" y="1480.0"/>
      <point x="155.0" y="1419.0"/>
    </contour>
  </outline>
</glyph>
<glyph name="LtnSmJ" format="2">
  <advance width="595.0"/>
  <unicode hex="006A"/>
  <anchor x="125.0" y="-500.0" name="L"/>
  <anchor x="313.0" y="1100.0" name="U"/>
  <outline>
    <contour>
      <point x="405.0" y="1020.0" type="line"/>
      <point x="205.0" y="1020.0" type="line"/>
      <point x="218.0" y="915.0"/>
      <point x="220.0" y="725.0"/>
      <point x="220.0" y="530.0" type="curve"/>
      <point x="220.0" y="-25.0" type="line"/>
      <point x="220.0" y="-222.0"/>
      <point x="147.0" y="-300.0"/>
      <point x="40.0" y="-300.0" type="curve" smooth="yes"/>
      <point x="-16.0" y="-300.0"/>
      <point x="-111.0" y="-273.0"/>
      <point x="-155.0" y="-240.0" type="curve"/>
      <point x="-190.0" y="-405.0" type="line"/>
      <point x="-130.0" y="-446.0"/>
      <point x="-26.0" y="-470.0"/>
      <point x="30.0" y="-470.0" type="curve" smooth="yes"/>
      <point x="258.0" y="-470.0"/>
      <point x="405.0" y="-348.0"/>
      <point x="405.0" y="25.0" type="curve" smooth="yes"/>
    </contour>
    <contour>
      <point x="185.0" y="1345.0" type="curve" smooth="yes"/>
      <point x="185.0" y="1271.0"/>
      <point x="236.0" y="1210.0"/>
      <point x="310.0" y="1210.0" type="curve" smooth="yes"/>
      <point x="385.0" y="1210.0"/>
      <point x="440.0" y="1271.0"/>
      <point x="440.0" y="1345.0" type="curve" smooth="yes"/>
      <point x="440.0" y="1419.0"/>
      <point x="385.0" y="1480.0"/>
      <point x="310.0" y="1480.0" type="curve" smooth="yes"/>
      <point x="236.0" y="1480.0"/>
      <point x="185.0" y="1419.0"/>
    </contour>
  </outline>
</glyph>
<glyph name="LtnSmK" format="2">
  <advance width="1035.0"/>
  <unicode hex="006B"/>
  <guideline x="500.0" y="774.0" angle="46.0"/>
  <anchor x="243.0" y="0.0" name="H"/>
  <anchor x="572.0" y="-100.0" name="L"/>
  <anchor x="1035.0" y="1000.0" name="R"/>
  <anchor x="572.0" y="1635.0" name="U"/>
  <outline>
    <contour>
      <point x="330.0" y="0.0" type="line"/>
      <point x="330.0" y="1600.0" type="line"/>
      <point x="130.0" y="1600.0" type="line"/>
      <point x="145.0" y="1514.0"/>
      <point x="145.0" y="1345.0"/>
      <point x="145.0" y="1130.0" type="curve" smooth="yes"/>
      <point x="145.0" y="934.0"/>
      <point x="145.0" y="0.0"/>
      <point x="145.0" y="0.0" type="curve"/>
    </contour>
    <contour>
      <point x="735.0" y="1020.0" type="line"/>
      <point x="280.0" y="550.0" type="line"/>
      <point x="436.0" y="524.0" type="line"/>
      <point x="985.0" y="1020.0" type="line"/>
    </contour>
    <contour>
      <point x="305.0" y="550.0" type="line"/>
      <point x="770.0" y="0.0" type="line"/>
      <point x="1015.0" y="0.0" type="line"/>
      <point x="410.0" y="660.0" type="line"/>
    </contour>
  </outline>
</glyph>
<glyph name="LtnSmL" format="2">
  <advance width="565.0"/>
  <unicode hex="006C"/>
  <guideline x="500.0" y="874.0" angle="20.0"/>
  <anchor x="290.0" y="0.0" name="H"/>
  <anchor x="290.0" y="-100.0" name="L"/>
  <anchor x="550.0" y="1000.0" name="R"/>
  <anchor x="282.0" y="1635.0" name="U"/>
  <outline>
    <contour>
      <point x="375.0" y="1600.0" type="line"/>
      <point x="170.0" y="1600.0" type="line"/>
      <point x="183.0" y="1485.0"/>
      <point x="190.0" y="1324.0"/>
      <point x="190.0" y="1130.0" type="curve"/>
      <point x="190.0" y="0.0" type="line"/>
      <point x="395.0" y="0.0" type="line"/>
      <point x="382.0" y="109.0"/>
      <point x="375.0" y="346.0"/>
      <point x="375.0" y="475.0" type="curve" smooth="yes"/>
    </contour>
  </outline>
</glyph>
<glyph name="LtnSmM" format="2">
  <advance width="1685.0"/>
  <unicode hex="006D"/>
  <anchor x="1450.0" y="0.0" name="H"/>
  <anchor x="865.0" y="-100.0" name="L"/>
  <anchor x="865.0" y="1100.0" name="U"/>
  <outline>
    <contour>
      <point x="945.0" y="660.0" type="line"/>
      <point x="1003.0" y="785.0"/>
      <point x="1102.0" y="865.0"/>
      <point x="1200.0" y="865.0" type="curve" smooth="yes"/>
      <point x="1312.0" y="865.0"/>
      <point x="1345.0" y="808.0"/>
      <point x="1345.0" y="550.0" type="curve" smooth="yes"/>
      <point x="1345.0" y="0.0" type="line"/>
      <point x="1530.0" y="0.0" type="line"/>
      <point x="1530.0" y="660.0" type="line" smooth="yes"/>
      <point x="1530.0" y="907.0"/>
      <point x="1463.0" y="1040.0"/>
      <point x="1260.0" y="1040.0" type="curve" smooth="yes"/>
      <point x="1155.0" y="1040.0"/>
      <point x="1046.0" y="1007.0"/>
      <point x="921.0" y="872.0" type="curve"/>
      <point x="888.0" y="960.0"/>
      <point x="806.0" y="1040.0"/>
      <point x="675.0" y="1040.0" type="curve" smooth="yes"/>
      <point x="560.0" y="1040.0"/>
      <point x="459.0" y="1006.0"/>
      <point x="337.0" y="865.0" type="curve"/>
      <point x="330.0" y="913.0"/>
      <point x="320.0" y="978.0"/>
      <point x="305.0" y="1020.0" type="curve"/>
      <point x="125.0" y="1020.0" type="line"/>
      <point x="146.0" y="951.0"/>
      <point x="175.0" y="811.0"/>
      <point x="175.0" y="615.0" type="curve" smooth="yes"/>
      <point x="175.0" y="0.0" type="line"/>
      <point x="360.0" y="0.0" type="line"/>
      <point x="360.0" y="660.0" type="line"/>
      <point x="413.0" y="780.0"/>
      <point x="517.0" y="865.0"/>
      <point x="615.0" y="865.0" type="curve" smooth="yes"/>
      <point x="727.0" y="865.0"/>
      <point x="760.0" y="818.0"/>
      <point x="760.0" y="570.0" type="curve" smooth="yes"/>
      <point x="760.0" y="0.0" type="line"/>
      <point x="945.0" y="0.0" type="line"/>
    </contour>
  </outline>
</glyph>
<glyph name="LtnSmN" format="2">
  <advance width="1185.0"/>
  <unicode hex="006E"/>
  <anchor x="970.0" y="0.0" name="H"/>
  <anchor x="600.0" y="-100.0" name="L"/>
  <anchor x="600.0" y="1100.0" name="U"/>
  <outline>
    <contour>
      <point x="1050.0" y="0.0" type="line"/>
      <point x="1050.0" y="0.0"/>
      <point x="1050.0" y="459.0"/>
      <point x="1050.0" y="625.0" type="curve" smooth="yes"/>
      <point x="1050.0" y="900.0"/>
      <point x="933.0" y="1040.0"/>
      <point x="720.0" y="1040.0" type="curve" smooth="yes"/>
      <point x="579.0" y="1040.0"/>
      <point x="452.0" y="977.0"/>
      <point x="325.0" y="825.0" type="curve"/>
      <point x="318.0" y="873.0"/>
      <point x="300.0" y="978.0"/>
      <point x="285.0" y="1020.0" type="curve"/>
      <point x="105.0" y="1020.0" type="line"/>
      <point x="127.0" y="951.0"/>
      <point x="155.0" y="811.0"/>
      <point x="155.0" y="615.0" type="curve" smooth="yes"/>
      <point x="155.0" y="420.0"/>
      <point x="155.0" y="0.0"/>
      <point x="155.0" y="0.0" type="curve"/>
      <point x="340.0" y="0.0" type="line"/>
      <point x="340.0" y="580.0" type="line"/>
      <point x="384.0" y="716.0"/>
      <point x="521.0" y="865.0"/>
      <point x="665.0" y="865.0" type="curve" smooth="yes"/>
      <point x="800.0" y="865.0"/>
      <point x="865.0" y="800.0"/>
      <point x="865.0" y="550.0" type="curve" smooth="yes"/>
      <point x="865.0" y="413.0"/>
      <point x="865.0" y="0.0"/>
      <point x="865.0" y="0.0" type="curve"/>
    </contour>
  </outline>
</glyph>
<glyph name="LtnSmO" format="2">
  <advance width="1140.0"/>
  <unicode hex="006F"/>
  <anchor x="570.0" y="0.0" name="H"/>
  <anchor x="570.0" y="-100.0" name="L"/>
  <anchor x="835.0" y="0.0" name="O"/>
  <anchor x="1140.0" y="1000.0" name="R"/>
  <anchor x="570.0" y="1100.0" name="U"/>
  <outline>
    <contour>
      <point x="95.0" y="505.0" type="curve" smooth="yes"/>
      <point x="95.0" y="161.0"/>
      <point x="286.0" y="-25.0"/>
      <point x="560.0" y="-25.0" type="curve" smooth="yes"/>
      <point x="823.0" y="-25.0"/>
      <point x="1045.0" y="161.0"/>
      <point x="1045.0" y="505.0" type="curve" smooth="yes"/>
      <point x="1045.0" y="849.0"/>
      <point x="855.0" y="1040.0"/>
      <point x="580.0" y="1040.0" type="curve" smooth="yes"/>
      <point x="317.0" y="1040.0"/>
      <point x="95.0" y="849.0"/>
    </contour>
    <contour>
      <point x="280.0" y="505.0" type="curve" smooth="yes"/>
      <point x="280.0" y="739.0"/>
      <point x="408.0" y="880.0"/>
      <point x="570.0" y="880.0" type="curve" smooth="yes"/>
      <point x="742.0" y="880.0"/>
      <point x="860.0" y="739.0"/>
      <point x="860.0" y="505.0" type="curve" smooth="yes"/>
      <point x="860.0" y="272.0"/>
      <point x="731.0" y="135.0"/>
      <point x="570.0" y="135.0" type="curve" smooth="yes"/>
      <point x="398.0" y="135.0"/>
      <point x="280.0" y="272.0"/>
    </contour>
  </outline>
</glyph>
<glyph name="LtnSmP" format="2">
  <advance width="1170.0"/>
  <unicode hex="0070"/>
  <guideline x="214.0" y="-490.0" angle="0.0"/>
  <anchor x="265.0" y="-435.0" name="H"/>
  <anchor x="590.0" y="-500.0" name="L"/>
  <anchor x="1170.0" y="1000.0" name="R"/>
  <anchor x="590.0" y="1100.0" name="U"/>
  <outline>
    <contour>
      <point x="105.0" y="1020.0" type="line"/>
      <point x="150.0" y="907.0"/>
      <point x="155.0" y="734.0"/>
      <point x="155.0" y="485.0" type="curve" smooth="yes"/>
      <point x="155.0" y="291.0"/>
      <point x="155.0" y="-490.0"/>
      <point x="155.0" y="-490.0" type="curve"/>
      <point x="365.0" y="-490.0" type="line"/>
      <point x="348.0" y="-405.0"/>
      <point x="340.0" y="-310.0"/>
      <point x="340.0" y="-150.0" type="curve"/>
      <point x="340.0" y="85.0" type="line"/>
      <point x="435.0" y="18.0"/>
      <point x="513.0" y="-25.0"/>
      <point x="620.0" y="-25.0" type="curve" smooth="yes"/>
      <point x="871.0" y="-25.0"/>
      <point x="1075.0" y="193.0"/>
      <point x="1075.0" y="535.0" type="curve" smooth="yes"/>
      <point x="1075.0" y="828.0"/>
      <point x="923.0" y="1040.0"/>
      <point x="695.0" y="1040.0" type="curve" smooth="yes"/>
      <point x="547.0" y="1040.0"/>
      <point x="419.0" y="954.0"/>
      <point x="325.0" y="830.0" type="curve"/>
      <point x="316.0" y="922.0"/>
      <point x="300.0" y="986.0"/>
      <point x="285.0" y="1020.0" type="curve"/>
    </contour>
    <contour>
      <point x="340.0" y="575.0" type="line"/>
      <point x="414.0" y="768.0"/>
      <point x="545.0" y="870.0"/>
      <point x="660.0" y="870.0" type="curve" smooth="yes"/>
      <point x="804.0" y="870.0"/>
      <point x="890.0" y="727.0"/>
      <point x="890.0" y="505.0" type="curve" smooth="yes"/>
      <point x="890.0" y="279.0"/>
      <point x="761.0" y="140.0"/>
      <point x="620.0" y="140.0" type="curve" smooth="yes"/>
      <point x="528.0" y="140.0"/>
      <point x="477.0" y="164.0"/>
      <point x="340.0" y="260.0" type="curve"/>
    </contour>
  </outline>
</glyph>
<glyph name="LtnSmQ" format="2">
  <advance width="1130.0"/>
  <unicode hex="0071"/>
  <anchor x="555.0" y="-500.0" name="L"/>
  <anchor x="1130.0" y="1000.0" name="R"/>
  <anchor x="555.0" y="1100.0" name="U"/>
  <outline>
    <contour>
      <point x="795.0" y="-490.0" type="line"/>
      <point x="1005.0" y="-490.0" type="line"/>
      <point x="988.0" y="-405.0"/>
      <point x="980.0" y="-310.0"/>
      <point x="980.0" y="-150.0" type="curve" smooth="yes"/>
      <point x="980.0" y="-26.0"/>
      <point x="980.0" y="965.0"/>
      <point x="980.0" y="965.0" type="curve"/>
      <point x="872.0" y="1001.0"/>
      <point x="746.0" y="1040.0"/>
      <point x="625.0" y="1040.0" type="curve" smooth="yes"/>
      <point x="260.0" y="1040.0"/>
      <point x="105.0" y="742.0"/>
      <point x="105.0" y="435.0" type="curve" smooth="yes"/>
      <point x="105.0" y="117.0"/>
      <point x="321.0" y="-25.0"/>
      <point x="505.0" y="-25.0" type="curve" smooth="yes"/>
      <point x="598.0" y="-25.0"/>
      <point x="691.0" y="19.0"/>
      <point x="795.0" y="140.0" type="curve"/>
    </contour>
    <contour>
      <point x="795.0" y="365.0" type="line"/>
      <point x="713.0" y="219.0"/>
      <point x="612.0" y="145.0"/>
      <point x="520.0" y="145.0" type="curve" smooth="yes"/>
      <point x="412.0" y="145.0"/>
      <point x="290.0" y="237.0"/>
      <point x="290.0" y="485.0" type="curve" smooth="yes"/>
      <point x="290.0" y="674.0"/>
      <point x="376.0" y="870.0"/>
      <point x="595.0" y="870.0" type="curve" smooth="yes"/>
      <point x="656.0" y="870.0"/>
      <point x="735.0" y="853.0"/>
      <point x="795.0" y="830.0" type="curve"/>
    </contour>
  </outline>
</glyph>
<glyph name="LtnSmR" format="2">
  <advance width="890.0"/>
  <unicode hex="0072"/>
  <guideline x="214.0" y="500.0" angle="0.0"/>
  <anchor x="270.0" y="0.0" name="H"/>
  <anchor x="255.0" y="-100.0" name="L"/>
  <anchor x="455.0" y="1100.0" name="U"/>
  <outline>
    <contour>
      <point x="340.0" y="0.0" type="line"/>
      <point x="340.0" y="580.0" type="line"/>
      <point x="384.0" y="716.0"/>
      <point x="521.0" y="860.0"/>
      <point x="605.0" y="860.0" type="curve" smooth="yes"/>
      <point x="684.0" y="860.0"/>
      <point x="720.0" y="770.0"/>
      <point x="720.0" y="670.0" type="curve"/>
      <point x="880.0" y="705.0" type="line"/>
      <point x="880.0" y="880.0"/>
      <point x="817.0" y="1040.0"/>
      <point x="650.0" y="1040.0" type="curve" smooth="yes"/>
      <point x="559.0" y="1040.0"/>
      <point x="422.0" y="964.0"/>
      <point x="325.0" y="825.0" type="curve"/>
      <point x="318.0" y="873.0"/>
      <point x="300.0" y="978.0"/>
      <point x="285.0" y="1020.0" type="curve"/>
      <point x="105.0" y="1020.0" type="line"/>
      <point x="127.0" y="951.0"/>
      <point x="155.0" y="811.0"/>
      <point x="155.0" y="615.0" type="curve" smooth="yes"/>
      <point x="155.0" y="0.0" type="line"/>
    </contour>
  </outline>
</glyph>
<glyph name="LtnSmS" format="2">
  <advance width="965.0"/>
  <unicode hex="0073"/>
  <anchor x="495.0" y="0.0" name="H"/>
  <anchor x="495.0" y="-100.0" name="L"/>
  <anchor x="495.0" y="1100.0" name="U"/>
  <outline>
    <contour>
      <point x="835.0" y="960.0" type="line"/>
      <point x="766.0" y="998.0"/>
      <point x="660.0" y="1040.0"/>
      <point x="515.0" y="1040.0" type="curve" smooth="yes"/>
      <point x="211.0" y="1040.0"/>
      <point x="130.0" y="832.0"/>
      <point x="130.0" y="740.0" type="curve" smooth="yes"/>
      <point x="130.0" y="616.0"/>
      <point x="182.0" y="514.0"/>
      <point x="425.0" y="455.0" type="curve" smooth="yes"/>
      <point x="649.0" y="400.0"/>
      <point x="700.0" y="345.0"/>
      <point x="700.0" y="270.0" type="curve" smooth="yes"/>
      <point x="700.0" y="201.0"/>
      <point x="617.0" y="135.0"/>
      <point x="500.0" y="135.0" type="curve" smooth="yes"/>
      <point x="394.0" y="135.0"/>
      <point x="250.0" y="189.0"/>
      <point x="160.0" y="270.0" type="curve"/>
      <point x="110.0" y="90.0" type="line"/>
      <point x="189.0" y="28.0"/>
      <point x="333.0" y="-25.0"/>
      <point x="495.0" y="-25.0" type="curve" smooth="yes"/>
      <point x="710.0" y="-25.0"/>
      <point x="880.0" y="115.0"/>
      <point x="880.0" y="295.0" type="curve" smooth="yes"/>
      <point x="880.0" y="481.0"/>
      <point x="731.0" y="559.0"/>
      <point x="550.0" y="600.0" type="curve" smooth="yes"/>
      <point x="340.0" y="648.0"/>
      <point x="310.0" y="680.0"/>
      <point x="310.0" y="750.0" type="curve" smooth="yes"/>
      <point x="310.0" y="810.0"/>
      <point x="358.0" y="880.0"/>
      <point x="505.0" y="880.0" type="curve" smooth="yes"/>
      <point x="629.0" y="880.0"/>
      <point x="733.0" y="824.0"/>
      <point x="800.0" y="785.0" type="curve"/>
    </contour>
  </outline>
</glyph>
<glyph name="LtnSmT" format="2">
  <advance width="835.0"/>
  <unicode hex="0074"/>
  <anchor x="475.0" y="0.0" name="H"/>
  <anchor x="475.0" y="-100.0" name="L"/>
  <anchor x="835.0" y="1000.0" name="R"/>
  <anchor x="325.0" y="1360.0" name="U"/>
  <outline>
    <contour>
      <point x="760.0" y="215.0" type="line"/>
      <point x="672.0" y="166.0"/>
      <point x="600.0" y="140.0"/>
      <point x="543.0" y="140.0" type="curve" smooth="yes"/>
      <point x="453.0" y="140.0"/>
      <point x="415.0" y="184.0"/>
      <point x="415.0" y="390.0" type="curve" smooth="yes"/>
      <point x="415.0" y="528.0"/>
      <point x="415.0" y="1320.0"/>
      <point x="415.0" y="1320.0" type="curve"/>
      <point x="230.0" y="1320.0" type="line"/>
      <point x="230.0" y="1320.0"/>
      <point x="230.0" y="435.0"/>
      <point x="230.0" y="270.0" type="curve" smooth="yes"/>
      <point x="230.0" y="39.0"/>
      <point x="356.0" y="-25.0"/>
      <point x="512.0" y="-25.0" type="curve" smooth="yes"/>
      <point x="582.0" y="-25.0"/>
      <point x="668.0" y="-4.0"/>
      <point x="760.0" y="55.0" type="curve"/>
    </contour>
    <contour>
      <point x="30.0" y="850.0" type="line"/>
      <point x="740.0" y="850.0" type="line"/>
      <point x="740.0" y="995.0" type="line"/>
      <point x="30.0" y="995.0" type="line"/>
    </contour>
  </outline>
</glyph>
<glyph name="LtnSmU" format="2">
  <advance width="1185.0"/>
  <unicode hex="0075"/>
  <anchor x="589.0" y="0.0" name="H"/>
  <anchor x="589.0" y="-100.0" name="L"/>
  <anchor x="1192.0" y="0.0" name="O"/>
  <anchor x="1185.0" y="1000.0" name="R"/>
  <anchor x="589.0" y="1100.0" name="U"/>
  <outline>
    <contour>
      <point x="1090.0" y="0.0" type="line"/>
      <point x="1048.0" y="112.0"/>
      <point x="1025.0" y="256.0"/>
      <point x="1025.0" y="450.0" type="curve" smooth="yes"/>
      <point x="1025.0" y="646.0"/>
      <point x="1025.0" y="1020.0"/>
      <point x="1025.0" y="1020.0" type="curve"/>
      <point x="820.0" y="1020.0" type="line"/>
      <point x="838.0" y="898.0"/>
      <point x="840.0" y="832.0"/>
      <point x="840.0" y="700.0" type="curve" smooth="yes"/>
      <point x="840.0" y="420.0" type="line"/>
      <point x="787.0" y="298.0"/>
      <point x="628.0" y="140.0"/>
      <point x="510.0" y="140.0" type="curve" smooth="yes"/>
      <point x="383.0" y="140.0"/>
      <point x="340.0" y="238.0"/>
      <point x="340.0" y="465.0" type="curve" smooth="yes"/>
      <point x="340.0" y="603.0"/>
      <point x="340.0" y="1020.0"/>
      <point x="340.0" y="1020.0" type="curve"/>
      <point x="135.0" y="1020.0" type="line"/>
      <point x="153.0" y="900.0"/>
      <point x="155.0" y="827.0"/>
      <point x="155.0" y="700.0" type="curve" smooth="yes"/>
      <point x="155.0" y="681.0"/>
      <point x="155.0" y="424.0"/>
      <point x="155.0" y="405.0" type="curve" smooth="yes"/>
      <point x="155.0" y="120.0"/>
      <point x="262.0" y="-25.0"/>
      <point x="475.0" y="-25.0" type="curve" smooth="yes"/>
      <point x="615.0" y="-25.0"/>
      <point x="744.0" y="53.0"/>
      <point x="865.0" y="200.0" type="curve"/>
      <point x="875.0" y="125.0"/>
      <point x="901.0" y="46.0"/>
      <point x="920.0" y="0.0" type="curve"/>
    </contour>
  </outline>
</glyph>
<glyph name="LtnSmV" format="2">
  <advance width="1070.0"/>
  <unicode hex="0076"/>
  <anchor x="549.0" y="0.0" name="H"/>
  <anchor x="535.0" y="-100.0" name="L"/>
  <anchor x="725.0" y="0.0" name="O"/>
  <anchor x="535.0" y="1100.0" name="U"/>
  <outline>
    <contour>
      <point x="840.0" y="1020.0" type="line"/>
      <point x="535.0" y="200.0" type="line"/>
      <point x="230.0" y="1020.0" type="line"/>
      <point x="20.0" y="1020.0" type="line"/>
      <point x="75.0" y="905.0"/>
      <point x="143.0" y="746.0"/>
      <point x="175.0" y="665.0" type="curve" smooth="yes"/>
      <point x="237.0" y="510.0"/>
      <point x="440.0" y="0.0"/>
      <point x="440.0" y="0.0" type="curve"/>
      <point x="630.0" y="0.0" type="line"/>
      <point x="630.0" y="0.0"/>
      <point x="842.0" y="536.0"/>
      <point x="895.0" y="665.0" type="curve" smooth="yes"/>
      <point x="928.0" y="744.0"/>
      <point x="993.0" y="905.0"/>
      <point x="1050.0" y="1020.0" type="curve"/>
    </contour>
  </outline>
</glyph>
<glyph name="LtnSmW" format="2">
  <advance width="1550.0"/>
  <unicode hex="0077"/>
  <anchor x="775.0" y="-100.0" name="L"/>
  <anchor x="775.0" y="1100.0" name="U"/>
  <outline>
    <contour>
      <point x="700.0" y="1020.0" type="line"/>
      <point x="440.0" y="215.0" type="line"/>
      <point x="230.0" y="1020.0" type="line"/>
      <point x="45.0" y="1020.0" type="line"/>
      <point x="92.0" y="867.0"/>
      <point x="120.0" y="771.0"/>
      <point x="150.0" y="665.0" type="curve" smooth="yes"/>
      <point x="335.0" y="0.0" type="line"/>
      <point x="525.0" y="0.0" type="line"/>
      <point x="775.0" y="785.0" type="line"/>
      <point x="1025.0" y="0.0" type="line"/>
      <point x="1215.0" y="0.0" type="line"/>
      <point x="1400.0" y="665.0" type="line" smooth="yes"/>
      <point x="1434.0" y="785.0"/>
      <point x="1458.0" y="868.0"/>
      <point x="1505.0" y="1020.0" type="curve"/>
      <point x="1320.0" y="1020.0" type="line"/>
      <point x="1110.0" y="215.0" type="line"/>
      <point x="850.0" y="1020.0" type="line"/>
    </contour>
  </outline>
</glyph>
<glyph name="LtnSmX" format="2">
  <advance width="1085.0"/>
  <unicode hex="0078"/>
  <anchor x="900.0" y="0.0" name="H"/>
  <anchor x="542.0" y="-100.0" name="L"/>
  <anchor x="542.0" y="1100.0" name="U"/>
  <outline>
    <contour>
      <point x="805.0" y="0.0" type="line"/>
      <point x="1035.0" y="0.0" type="line"/>
      <point x="927.0" y="142.0"/>
      <point x="902.0" y="170.0"/>
      <point x="830.0" y="270.0" type="curve" smooth="yes"/>
      <point x="290.0" y="1020.0" type="line"/>
      <point x="60.0" y="1020.0" type="line"/>
      <point x="168.0" y="887.0"/>
      <point x="203.0" y="843.0"/>
      <point x="270.0" y="750.0" type="curve"/>
    </contour>
    <contour>
      <point x="489.0" y="616.0" type="line"/>
      <point x="250.0" y="270.0" type="line" smooth="yes"/>
      <point x="189.0" y="182.0"/>
      <point x="160.0" y="143.0"/>
      <point x="50.0" y="0.0" type="curve"/>
      <point x="275.0" y="0.0" type="line"/>
      <point x="556.0" y="404.0" type="line"/>
    </contour>
    <contour>
      <point x="585.0" y="405.0" type="line"/>
      <point x="820.0" y="750.0" type="line" smooth="yes"/>
      <point x="883.0" y="842.0"/>
      <point x="917.0" y="886.0"/>
      <point x="1020.0" y="1020.0" type="curve"/>
      <point x="795.0" y="1020.0" type="line"/>
      <point x="520.0" y="615.0" type="line"/>
    </contour>
  </outline>
</glyph>
<glyph name="LtnSmY" format="2">
  <advance width="1060.0"/>
  <unicode hex="0079"/>
  <anchor x="795.0" y="-100.0" name="L"/>
  <anchor x="1120.0" y="1000.0" name="R"/>
  <anchor x="535.0" y="1100.0" name="U"/>
  <outline>
    <contour>
      <point x="610.0" y="60.0" type="line"/>
      <point x="230.0" y="1020.0" type="line"/>
      <point x="30.0" y="1020.0" type="line"/>
      <point x="107.0" y="864.0"/>
      <point x="153.0" y="756.0"/>
      <point x="190.0" y="665.0" type="curve" smooth="yes"/>
      <point x="525.0" y="-165.0" type="line"/>
    </contour>
    <contour>
      <point x="895.0" y="665.0" type="line"/>
      <point x="928.0" y="758.0"/>
      <point x="971.0" y="865.0"/>
      <point x="1040.0" y="1020.0" type="curve"/>
      <point x="840.0" y="1020.0" type="line"/>
      <point x="840.0" y="1020.0"/>
      <point x="564.0" y="230.0"/>
      <point x="500.0" y="55.0" type="curve" smooth="yes"/>
      <point x="391.0" y="-248.0"/>
      <point x="315.0" y="-300.0"/>
      <point x="225.0" y="-300.0" type="curve" smooth="yes"/>
      <point x="159.0" y="-300.0"/>
      <point x="82.0" y="-260.0"/>
      <point x="40.0" y="-225.0" type="curve"/>
      <point x="-20.0" y="-385.0" type="line"/>
      <point x="53.0" y="-439.0"/>
      <point x="134.0" y="-470.0"/>
      <point x="225.0" y="-470.0" type="curve" smooth="yes"/>
      <point x="395.0" y="-470.0"/>
      <point x="516.0" y="-383.0"/>
      <point x="655.0" y="0.0" type="curve"/>
    </contour>
  </outline>
</glyph>
<glyph name="LftCurlyBrac" format="2">
  <advance width="1000.0"/>
  <unicode hex="007B"/>
  <outline>
    <contour>
      <point x="210.0" y="615.0" type="curve" smooth="yes"/>
      <point x="210.0" y="583.0"/>
      <point x="383.0" y="486.0"/>
      <point x="410.0" y="450.0" type="curve" smooth="yes"/>
      <point x="434.0" y="418.0"/>
      <point x="424.0" y="-205.0"/>
      <point x="495.0" y="-285.0" type="curve" smooth="yes"/>
      <point x="535.0" y="-330.0"/>
      <point x="696.0" y="-383.0"/>
      <point x="800.0" y="-410.0" type="curve"/>
      <point x="840.0" y="-270.0" type="line"/>
      <point x="773.0" y="-247.0"/>
      <point x="650.0" y="-198.0"/>
      <point x="630.0" y="-170.0" type="curve" smooth="yes"/>
      <point x="597.0" y="-123.0"/>
      <point x="610.0" y="447.0"/>
      <point x="590.0" y="485.0" type="curve" smooth="yes"/>
      <point x="571.0" y="521.0"/>
      <point x="434.0" y="593.0"/>
      <point x="430.0" y="615.0" type="curve"/>
      <point x="434.0" y="637.0"/>
      <point x="571.0" y="709.0"/>
      <point x="590.0" y="745.0" type="curve" smooth="yes"/>
      <point x="610.0" y="783.0"/>
      <point x="597.0" y="1353.0"/>
      <point x="630.0" y="1400.0" type="curve" smooth="yes"/>
      <point x="650.0" y="1428.0"/>
      <point x="773.0" y="1477.0"/>
      <point x="840.0" y="1500.0" type="curve"/>
      <point x="800.0" y="1640.0" type="line"/>
      <point x="696.0" y="1613.0"/>
      <point x="535.0" y="1560.0"/>
      <point x="495.0" y="1515.0" type="curve" smooth="yes"/>
      <point x="424.0" y="1435.0"/>
      <point x="434.0" y="812.0"/>
      <point x="410.0" y="780.0" type="curve" smooth="yes"/>
      <point x="383.0" y="744.0"/>
      <point x="210.0" y="647.0"/>
    </contour>
  </outline>
</glyph>
<glyph name="VertLine" format="2">
  <advance width="690.0"/>
  <unicode hex="007C"/>
  <outline>
    <contour>
      <point x="270.0" y="1600.0" type="line"/>
      <point x="270.0" y="-390.0" type="line"/>
      <point x="420.0" y="-390.0" type="line"/>
      <point x="420.0" y="1600.0" type="line"/>
    </contour>
  </outline>
</glyph>
<glyph name="RtCurlyBrac" format="2">
  <advance width="1000.0"/>
  <unicode hex="007D"/>
  <outline>
    <contour>
      <point x="790.0" y="615.0" type="curve" smooth="yes"/>
      <point x="790.0" y="647.0"/>
      <point x="617.0" y="744.0"/>
      <point x="590.0" y="780.0" type="curve" smooth="yes"/>
      <point x="566.0" y="812.0"/>
      <point x="576.0" y="1435.0"/>
      <point x="505.0" y="1515.0" type="curve" smooth="yes"/>
      <point x="465.0" y="1560.0"/>
      <point x="304.0" y="1613.0"/>
      <point x="200.0" y="1640.0" type="curve"/>
      <point x="160.0" y="1500.0" type="line"/>
      <point x="227.0" y="1477.0"/>
      <point x="350.0" y="1428.0"/>
      <point x="370.0" y="1400.0" type="curve" smooth="yes"/>
      <point x="403.0" y="1353.0"/>
      <point x="390.0" y="783.0"/>
      <point x="410.0" y="745.0" type="curve" smooth="yes"/>
      <point x="429.0" y="709.0"/>
      <point x="566.0" y="637.0"/>
      <point x="570.0" y="615.0" type="curve"/>
      <point x="566.0" y="593.0"/>
      <point x="429.0" y="521.0"/>
      <point x="410.0" y="485.0" type="curve" smooth="yes"/>
      <point x="390.0" y="447.0"/>
      <point x="403.0" y="-123.0"/>
      <point x="370.0" y="-170.0" type="curve" smooth="yes"/>
      <point x="350.0" y="-198.0"/>
      <point x="227.0" y="-247.0"/>
      <point x="160.0" y="-270.0" type="curve"/>
      <point x="200.0" y="-410.0" type="line"/>
      <point x="304.0" y="-383.0"/>
      <point x="465.0" y="-330.0"/>
      <point x="505.0" y="-285.0" type="curve" smooth="yes"/>
      <point x="576.0" y="-205.0"/>
      <point x="566.0" y="418.0"/>
      <point x="590.0" y="450.0" type="curve" smooth="yes"/>
      <point x="617.0" y="486.0"/>
      <point x="790.0" y="583.0"/>
    </contour>
  </outline>
</glyph>
<glyph name="Tilde" format="2">
  <advance width="1115.0"/>
  <unicode hex="007E"/>
  <outline>
    <contour>
      <point x="125.0" y="375.0" type="line"/>
      <point x="130.0" y="424.0"/>
      <point x="162.0" y="465.0"/>
      <point x="240.0" y="465.0" type="curve" smooth="yes"/>
      <point x="415.0" y="465.0"/>
      <point x="615.0" y="360.0"/>
      <point x="845.0" y="360.0" type="curve" smooth="yes"/>
      <point x="1004.0" y="360.0"/>
      <point x="1080.0" y="482.0"/>
      <point x="1080.0" y="610.0" type="curve"/>
      <point x="975.0" y="610.0" type="line"/>
      <point x="968.0" y="564.0"/>
      <point x="938.0" y="510.0"/>
      <point x="855.0" y="510.0" type="curve" smooth="yes"/>
      <point x="619.0" y="510.0"/>
      <point x="461.0" y="615.0"/>
      <point x="240.0" y="615.0" type="curve" smooth="yes"/>
      <point x="94.0" y="615.0"/>
      <point x="20.0" y="497.0"/>
      <point x="20.0" y="375.0" type="curve"/>
    </contour>
  </outline>
</glyph>
<glyph name="LtnSmATilde" format="2">
  <advance width="1120.0"/>
  <unicode hex="00E3"/>
  <anchor x="540.0" y="0.0" name="H"/>
  <anchor x="540.0" y="-100.0" name="L"/>
  <anchor x="1125.0" y="0.0" name="O"/>
  <anchor x="1120.0" y="1000.0" name="R"/>
  <anchor x="540.0" y="1475.0" name="U"/>
  <outline>
    <contour>
      <point x="295.0" y="1205.0" type="line"/>
      <point x="300.0" y="1254.0"/>
      <point x="331.0" y="1290.0"/>
      <point x="380.0" y="1290.0" type="curve" smooth="yes"/>
      <point x="417.0" y="1290.0"/>
      <point x="458.0" y="1274.0"/>
      <point x="535.0" y="1238.0" type="curve" smooth="yes"/>
      <point x="596.0" y="1210.0"/>
      <point x="649.0" y="1190.0"/>
      <point x="702.0" y="1190.0" type="curve" smooth="yes"/>
      <point x="825.0" y="1190.0"/>
      <point x="900.0" y="1312.0"/>
      <point x="900.0" y="1440.0" type="curve"/>
      <point x="795.0" y="1440.0" type="line"/>
      <point x="788.0" y="1394.0"/>
      <point x="757.0" y="1355.0"/>
      <point x="710.0" y="1355.0" type="curve" smooth="yes"/>
      <point x="668.0" y="1355.0"/>
      <point x="627.0" y="1374.0"/>
      <point x="555.0" y="1403.0" type="curve" smooth="yes"/>
      <point x="485.0" y="1431.0"/>
      <point x="438.0" y="1455.0"/>
      <point x="382.0" y="1455.0" type="curve" smooth="yes"/>
      <point x="263.0" y="1455.0"/>
      <point x="190.0" y="1327.0"/>
      <point x="190.0" y="1205.0" type="curve"/>
    </contour>
    <component base="LtnSmA"/>
  </outline>
</glyph>
<glyph name="LtnSmARingAbv" format="2">
  <advance width="1120.0"/>
  <unicode hex="00E5"/>
  <anchor x="540.0" y="0.0" name="H"/>
  <anchor x="540.0" y="-100.0" name="L"/>
  <anchor x="1125.0" y="0.0" name="O"/>
  <anchor x="1120.0" y="1000.0" name="R"/>
  <anchor x="542.0" y="1635.0" name="U"/>
  <outline>
    <contour>
      <point x="642.0" y="1385.0" type="curve" smooth="yes"/>
      <point x="642.0" y="1325.0"/>
      <point x="602.0" y="1285.0"/>
      <point x="542.0" y="1285.0" type="curve" smooth="yes"/>
      <point x="482.0" y="1285.0"/>
      <point x="442.0" y="1325.0"/>
      <point x="442.0" y="1385.0" type="curve" smooth="yes"/>
      <point x="442.0" y="1445.0"/>
      <point x="482.0" y="1485.0"/>
      <point x="542.0" y="1485.0" type="curve" smooth="yes"/>
      <point x="602.0" y="1485.0"/>
      <point x="642.0" y="1445.0"/>
    </contour>
    <contour>
      <point x="327.0" y="1385.0" type="curve" smooth="yes"/>
      <point x="327.0" y="1265.0"/>
      <point x="422.0" y="1170.0"/>
      <point x="542.0" y="1170.0" type="curve" smooth="yes"/>
      <point x="662.0" y="1170.0"/>
      <point x="757.0" y="1265.0"/>
      <point x="757.0" y="1385.0" type="curve" smooth="yes"/>
      <point x="757.0" y="1505.0"/>
      <point x="662.0" y="1600.0"/>
      <point x="542.0" y="1600.0" type="curve" smooth="yes"/>
      <point x="422.0" y="1600.0"/>
      <point x="327.0" y="1505.0"/>
    </contour>
    <component base="LtnSmA"/>
  </outline>
</glyph>
<glyph name="CombGrave" format="2">
  <unicode hex="0300"/>
  <anchor x="-550.0" y="1635.0" name="U"/>
  <anchor x="-550.0" y="1100.0" name="_U"/>
  <outline>
    <contour>
      <point x="-940.0" y="1600.0" type="line"/>
      <point x="-520.0" y="1170.0" type="line"/>
      <point x="-360.0" y="1170.0" type="line"/>
      <point x="-710.0" y="1600.0" type="line"/>
    </contour>
  </outline>
</glyph>
<glyph name="CombAcute" format="2">
  <unicode hex="0301"/>
  <anchor x="-570.0" y="1635.0" name="U"/>
  <anchor x="-570.0" y="1100.0" name="_U"/>
  <outline>
    <contour>
      <point x="-400.0" y="1600.0" type="line"/>
      <point x="-750.0" y="1170.0" type="line"/>
      <point x="-590.0" y="1170.0" type="line"/>
      <point x="-170.0" y="1600.0" type="line"/>
    </contour>
  </outline>
</glyph>
<glyph name="CombCircum" format="2">
  <unicode hex="0302"/>
  <anchor x="-570.0" y="1635.0" name="U"/>
  <anchor x="-570.0" y="1100.0" name="_U"/>
  <outline>
    <contour>
      <point x="-845.0" y="1170.0" type="line"/>
      <point x="-570.0" y="1450.0" type="line"/>
      <point x="-295.0" y="1170.0" type="line"/>
      <point x="-145.0" y="1170.0" type="line"/>
      <point x="-485.0" y="1600.0" type="line"/>
      <point x="-655.0" y="1600.0" type="line"/>
      <point x="-995.0" y="1170.0" type="line"/>
    </contour>
  </outline>
</glyph>
<glyph name="CombTilde" format="2">
  <unicode hex="0303"/>
  <anchor x="-575.0" y="1475.0" name="U"/>
  <anchor x="-575.0" y="1100.0" name="_U"/>
  <outline>
    <contour>
      <point x="-820.0" y="1205.0" type="line"/>
      <point x="-815.0" y="1254.0"/>
      <point x="-784.0" y="1290.0"/>
      <point x="-735.0" y="1290.0" type="curve" smooth="yes"/>
      <point x="-698.0" y="1290.0"/>
      <point x="-657.0" y="1274.0"/>
      <point x="-580.0" y="1238.0" type="curve" smooth="yes"/>
      <point x="-519.0" y="1210.0"/>
      <point x="-466.0" y="1190.0"/>
      <point x="-413.0" y="1190.0" type="curve" smooth="yes"/>
      <point x="-290.0" y="1190.0"/>
      <point x="-215.0" y="1312.0"/>
      <point x="-215.0" y="1440.0" type="curve"/>
      <point x="-320.0" y="1440.0" type="line"/>
      <point x="-327.0" y="1394.0"/>
      <point x="-358.0" y="1355.0"/>
      <point x="-405.0" y="1355.0" type="curve" smooth="yes"/>
      <point x="-447.0" y="1355.0"/>
      <point x="-488.0" y="1374.0"/>
      <point x="-560.0" y="1403.0" type="curve" smooth="yes"/>
      <point x="-630.0" y="1431.0"/>
      <point x="-677.0" y="1455.0"/>
      <point x="-733.0" y="1455.0" type="curve" smooth="yes"/>
      <point x="-852.0" y="1455.0"/>
      <point x="-925.0" y="1327.0"/>
      <point x="-925.0" y="1205.0" type="curve"/>
    </contour>
  </outline>
</glyph>
<glyph name="CombDiaer" format="2">
  <unicode hex="0308"/>
  <anchor x="-570.0" y="1505.0" name="U"/>
  <anchor x="-570.0" y="1100.0" name="_U"/>
  <outline>
    <contour>
      <point x="-490.0" y="1345.0" type="curve" smooth="yes"/>
      <point x="-490.0" y="1271.0"/>
      <point x="-434.0" y="1210.0"/>
      <point x="-360.0" y="1210.0" type="curve" smooth="yes"/>
      <point x="-285.0" y="1210.0"/>
      <point x="-230.0" y="1271.0"/>
      <point x="-230.0" y="1345.0" type="curve" smooth="yes"/>
      <point x="-230.0" y="1419.0"/>
      <point x="-285.0" y="1480.0"/>
      <point x="-360.0" y="1480.0" type="curve" smooth="yes"/>
      <point x="-434.0" y="1480.0"/>
      <point x="-490.0" y="1419.0"/>
    </contour>
    <contour>
      <point x="-910.0" y="1345.0" type="curve" smooth="yes"/>
      <point x="-910.0" y="1271.0"/>
      <point x="-854.0" y="1210.0"/>
      <point x="-780.0" y="1210.0" type="curve" smooth="yes"/>
      <point x="-705.0" y="1210.0"/>
      <point x="-650.0" y="1271.0"/>
      <point x="-650.0" y="1345.0" type="curve" smooth="yes"/>
      <point x="-650.0" y="1419.0"/>
      <point x="-705.0" y="1480.0"/>
      <point x="-780.0" y="1480.0" type="curve" smooth="yes"/>
      <point x="-854.0" y="1480.0"/>
      <point x="-910.0" y="1419.0"/>
    </contour>
  </outline>
</glyph>
<glyph name="CombRingAbv" format="2">
  <unicode hex="030A"/>
  <anchor x="-570.0" y="1635.0" name="U"/>
  <anchor x="-572.0" y="1100.0" name="_U"/>
  <outline>
    <contour>
      <point x="-470.0" y="1385.0" type="curve" smooth="yes"/>
      <point x="-470.0" y="1325.0"/>
      <point x="-510.0" y="1285.0"/>
      <point x="-570.0" y="1285.0" type="curve" smooth="yes"/>
      <point x="-630.0" y="1285.0"/>
      <point x="-670.0" y="1325.0"/>
      <point x="-670.0" y="1385.0" type="curve" smooth="yes"/>
      <point x="-670.0" y="1445.0"/>
      <point x="-630.0" y="1485.0"/>
      <point x="-570.0" y="1485.0" type="curve" smooth="yes"/>
      <point x="-510.0" y="1485.0"/>
      <point x="-470.0" y="1445.0"/>
    </contour>
    <contour>
      <point x="-785.0" y="1385.0" type="curve" smooth="yes"/>
      <point x="-785.0" y="1265.0"/>
      <point x="-690.0" y="1170.0"/>
      <point x="-570.0" y="1170.0" type="curve" smooth="yes"/>
      <point x="-450.0" y="1170.0"/>
      <point x="-355.0" y="1265.0"/>
      <point x="-355.0" y="1385.0" type="curve" smooth="yes"/>
      <point x="-355.0" y="1505.0"/>
      <point x="-450.0" y="1600.0"/>
      <point x="-570.0" y="1600.0" type="curve" smooth="yes"/>
      <point x="-690.0" y="1600.0"/>
      <point x="-785.0" y="1505.0"/>
    </contour>
  </outline>
</glyph>
<glyph name="Hyphen" format="2">
  <advance width="860.0"/>
  <unicode hex="2010"/>
  <anchor x="430.0" y="1100.0" name="U"/>
  <outline>
    <contour>
      <point x="80.0" y="555.0" type="line"/>
      <point x="780.0" y="555.0" type="line"/>
      <point x="780.0" y="705.0" type="line"/>
      <point x="80.0" y="705.0" type="line"/>
    </contour>
  </outline>
</glyph>
<glyph name="LtnCapA.alt" format="2">
  <advance width="1395.0"/>
  <anchor x="668.0" y="1460.0" name="H"/>
  <anchor x="688.0" y="1560.0" name="L"/>
  <anchor x="-75.0" y="1460.0" name="O"/>
  <anchor x="688.0" y="-70.0" name="U"/>
  <outline>
    <contour>
      <point x="1130.0" y="1460.0" type="line"/>
      <point x="996.0" y="1075.0" type="line"/>
      <point x="381.0" y="1075.0" type="line"/>
      <point x="245.0" y="1460.0" type="line"/>
      <point x="40.0" y="1460.0" type="line"/>
      <point x="75.0" y="1380.0"/>
      <point x="113.0" y="1291.0"/>
      <point x="180.0" y="1105.0" type="curve" smooth="yes"/>
      <point x="580.0" y="0.0" type="line"/>
      <point x="795.0" y="0.0" type="line"/>
      <point x="1195.0" y="1105.0" type="line" smooth="yes"/>
      <point x="1263.0" y="1292.0"/>
      <point x="1299.0" y="1379.0"/>
      <point x="1335.0" y="1460.0" type="curve"/>
    </contour>
    <contour>
      <point x="435.0" y="920.0" type="line"/>
      <point x="942.0" y="920.0" type="line"/>
      <point x="690.0" y="195.0" type="line"/>
    </contour>
  </outline>
</glyph>
